<svg width="183" height="66" viewBox="0 0 183 66" fill="none" xmlns="http://www.w3.org/2000/svg">
<rect x="0.5" width="182.5" height="65.913" rx="10" fill="#F8F8F8"/>
<g clip-path="url(#clip0_16_2991)">
<path d="M46.2944 39.0298H53.0435L36.3246 22.3108H29.5754L46.2944 39.0298Z" fill="#4A4170"/>
<path d="M39.792 22.3108L55.9088 38.4276V22.3108H51.5473V27.3992L46.4589 22.3108L39.792 22.3108Z" fill="#4A4170"/>
<path d="M26.75 22.8705V39.0297H31.1115V33.9413L36.1998 39.0297H42.9093L26.75 22.8705Z" fill="#4A4170"/>
<path d="M66.4337 36.5158H70.3415V38.8186H63.4504V26.5717H66.4337V36.5158Z" fill="#6687A6"/>
<path d="M75.6724 38.9583C74.7186 38.9583 73.8579 38.7548 73.0903 38.3476C72.3343 37.9406 71.7354 37.359 71.2934 36.6031C70.8631 35.8471 70.6479 34.9632 70.6479 33.9513C70.6479 32.9511 70.8689 32.0729 71.3109 31.317C71.7529 30.5493 72.3576 29.962 73.1252 29.5549C73.8929 29.1479 74.7535 28.9443 75.7072 28.9443C76.661 28.9443 77.5216 29.1479 78.2892 29.5549C79.0568 29.962 79.6616 30.5493 80.1036 31.317C80.5456 32.0729 80.7665 32.9511 80.7665 33.9513C80.7665 34.9515 80.5398 35.8354 80.0861 36.6031C79.6442 37.359 79.0335 37.9406 78.2543 38.3476C77.4867 38.7548 76.626 38.9583 75.6724 38.9583ZM75.6724 36.3763C76.2423 36.3763 76.7249 36.1669 77.1203 35.7482C77.5274 35.3295 77.7309 34.7306 77.7309 33.9513C77.7309 33.172 77.5332 32.5731 77.1378 32.1544C76.754 31.7357 76.2771 31.5263 75.7072 31.5263C75.1257 31.5263 74.643 31.7357 74.2592 32.1544C73.8754 32.5615 73.6835 33.1605 73.6835 33.9513C73.6835 34.7306 73.8696 35.3295 74.2418 35.7482C74.6256 36.1669 75.1025 36.3763 75.6724 36.3763Z" fill="#6687A6"/>
<path d="M85.5244 28.9443C86.2106 28.9443 86.8096 29.0839 87.3213 29.363C87.8447 29.6422 88.2459 30.0086 88.5251 30.4621V29.0839H91.5083V38.8013C91.5083 39.6968 91.328 40.5051 90.9675 41.2262C90.6186 41.9589 90.0777 42.5405 89.345 42.9708C88.6239 43.4012 87.7225 43.6163 86.6409 43.6163C85.1987 43.6163 84.0299 43.2732 83.1343 42.587C82.2387 41.9124 81.727 40.9936 81.599 39.8306H84.5474C84.6404 40.2027 84.8614 40.4935 85.2103 40.7028C85.5593 40.9238 85.9896 41.0343 86.5014 41.0343C87.1178 41.0343 87.6062 40.8541 87.9668 40.4935C88.3389 40.1446 88.5251 39.5805 88.5251 38.8013V37.423C88.2343 37.8766 87.833 38.2488 87.3213 38.5396C86.8096 38.8187 86.2106 38.9583 85.5244 38.9583C84.7219 38.9583 83.9949 38.7548 83.3436 38.3476C82.6923 37.9289 82.1747 37.3417 81.791 36.5856C81.4188 35.818 81.2327 34.9341 81.2327 33.9339C81.2327 32.9336 81.4188 32.0555 81.791 31.2995C82.1747 30.5436 82.6923 29.962 83.3436 29.5549C83.9949 29.1479 84.7219 28.9443 85.5244 28.9443ZM88.5251 33.9513C88.5251 33.207 88.3157 32.6196 87.897 32.1893C87.49 31.7589 86.9898 31.5437 86.3967 31.5437C85.8035 31.5437 85.2976 31.7589 84.8789 32.1893C84.4718 32.608 84.2683 33.1895 84.2683 33.9339C84.2683 34.6783 84.4718 35.2714 84.8789 35.7134C85.2976 36.1437 85.8035 36.3588 86.3967 36.3588C86.9898 36.3588 87.49 36.1437 87.897 35.7134C88.3157 35.283 88.5251 34.6956 88.5251 33.9513Z" fill="#6687A6"/>
<path d="M97.5742 38.9583C96.6205 38.9583 95.7599 38.7548 94.9922 38.3476C94.2363 37.9406 93.6372 37.359 93.1953 36.6031C92.765 35.8471 92.5498 34.9632 92.5498 33.9513C92.5498 32.9511 92.7708 32.0729 93.2127 31.317C93.6547 30.5493 94.2595 29.962 95.0271 29.5549C95.7947 29.1479 96.6554 28.9443 97.6091 28.9443C98.5628 28.9443 99.4235 29.1479 100.191 29.5549C100.959 29.962 101.564 30.5493 102.005 31.317C102.447 32.0729 102.668 32.9511 102.668 33.9513C102.668 34.9515 102.442 35.8354 101.988 36.6031C101.546 37.359 100.935 37.9406 100.156 38.3476C99.3886 38.7548 98.5279 38.9583 97.5742 38.9583ZM97.5742 36.3763C98.1441 36.3763 98.6268 36.1669 99.0222 35.7482C99.4293 35.3295 99.6329 34.7306 99.6329 33.9513C99.6329 33.172 99.4352 32.5731 99.0397 32.1544C98.6558 31.7357 98.1791 31.5263 97.6091 31.5263C97.0276 31.5263 96.5449 31.7357 96.1611 32.1544C95.7773 32.5615 95.5854 33.1605 95.5854 33.9513C95.5854 34.7306 95.7715 35.3295 96.1436 35.7482C96.5275 36.1669 97.0043 36.3763 97.5742 36.3763Z" fill="#6687A6"/>
<path d="M105.228 28.0721C104.705 28.0721 104.274 27.9209 103.937 27.6185C103.612 27.3045 103.449 26.9207 103.449 26.4671C103.449 26.0018 103.612 25.618 103.937 25.3156C104.274 25.0016 104.705 24.8446 105.228 24.8446C105.74 24.8446 106.159 25.0016 106.484 25.3156C106.822 25.618 106.99 26.0018 106.99 26.4671C106.99 26.9207 106.822 27.3045 106.484 27.6185C106.159 27.9209 105.74 28.0721 105.228 28.0721ZM106.711 29.084V38.8187H103.728V29.084H106.711Z" fill="#6687A6"/>
<path d="M111.333 30.4621C111.624 30.0086 112.025 29.6422 112.536 29.363C113.048 29.0839 113.647 28.9443 114.334 28.9443C115.136 28.9443 115.863 29.1479 116.514 29.5549C117.166 29.962 117.677 30.5436 118.05 31.2995C118.434 32.0555 118.625 32.9336 118.625 33.9339C118.625 34.9341 118.434 35.818 118.05 36.5856C117.677 37.3417 117.166 37.9289 116.514 38.3476C115.863 38.7548 115.136 38.9583 114.334 38.9583C113.659 38.9583 113.06 38.8187 112.536 38.5396C112.025 38.2604 111.624 37.8999 111.333 37.4579V43.4593H108.35V29.0839H111.333V30.4621ZM115.59 33.9339C115.59 33.1895 115.38 32.608 114.962 32.1893C114.555 31.7589 114.048 31.5437 113.444 31.5437C112.85 31.5437 112.345 31.7589 111.926 32.1893C111.519 32.6196 111.316 33.207 111.316 33.9513C111.316 34.6956 111.519 35.283 111.926 35.7134C112.345 36.1437 112.85 36.3588 113.444 36.3588C114.037 36.3588 114.543 36.1437 114.962 35.7134C115.38 35.2714 115.59 34.6783 115.59 33.9339Z" fill="#6687A6"/>
<path d="M123.627 38.9583C122.778 38.9583 122.022 38.8129 121.36 38.5221C120.696 38.2314 120.173 37.8359 119.79 37.3358C119.405 36.8241 119.19 36.2541 119.144 35.6261H122.092C122.127 35.9634 122.284 36.2367 122.563 36.4461C122.842 36.6554 123.186 36.7601 123.593 36.7601C123.965 36.7601 124.249 36.6903 124.448 36.5508C124.657 36.3996 124.762 36.2076 124.762 35.975C124.762 35.6959 124.616 35.4924 124.325 35.3644C124.034 35.2248 123.563 35.0737 122.912 34.9108C122.214 34.748 121.632 34.5793 121.167 34.4049C120.702 34.2188 120.301 33.9339 119.963 33.55C119.627 33.1546 119.458 32.6254 119.458 31.9624C119.458 31.4042 119.609 30.8983 119.911 30.4446C120.225 29.9795 120.679 29.6131 121.272 29.3456C121.877 29.0781 122.592 28.9443 123.418 28.9443C124.639 28.9443 125.599 29.2467 126.296 29.8515C127.006 30.4563 127.413 31.2588 127.518 32.2591H124.762C124.714 31.9217 124.563 31.6542 124.308 31.4565C124.064 31.2588 123.738 31.16 123.331 31.16C122.982 31.16 122.715 31.2297 122.528 31.3693C122.342 31.4972 122.249 31.6775 122.249 31.9101C122.249 32.1893 122.395 32.3986 122.685 32.5382C122.987 32.6778 123.453 32.8173 124.081 32.9569C124.802 33.143 125.39 33.329 125.843 33.5152C126.296 33.6896 126.692 33.9804 127.029 34.3874C127.379 34.7829 127.558 35.3179 127.57 35.9924C127.57 36.5624 127.407 37.0741 127.081 37.5277C126.767 37.9697 126.308 38.3186 125.704 38.5745C125.11 38.8303 124.418 38.9583 123.627 38.9583Z" fill="#6687A6"/>
<path d="M138.484 29.0839V38.8186H135.501V37.4928C135.199 37.9232 134.786 38.272 134.263 38.5396C133.751 38.7954 133.181 38.9233 132.553 38.9233C131.809 38.9233 131.151 38.7606 130.581 38.4349C130.011 38.0976 129.57 37.6149 129.256 36.9868C128.942 36.3588 128.785 35.6203 128.785 34.7712V29.0839H131.75V34.3699C131.75 35.0213 131.919 35.5272 132.256 35.8877C132.594 36.2483 133.047 36.4286 133.617 36.4286C134.198 36.4286 134.658 36.2483 134.995 35.8877C135.333 35.5272 135.501 35.0213 135.501 34.3699V29.0839H138.484Z" fill="#6687A6"/>
<path d="M152.525 28.9792C153.735 28.9792 154.694 29.3456 155.403 30.0783C156.125 30.811 156.486 31.8287 156.486 33.1314V38.8187H153.519V33.5326C153.519 32.9045 153.351 32.4219 153.014 32.0846C152.688 31.7357 152.235 31.5612 151.653 31.5612C151.071 31.5612 150.612 31.7357 150.274 32.0846C149.949 32.4219 149.786 32.9045 149.786 33.5326V38.8187H146.82V33.5326C146.82 32.9045 146.652 32.4219 146.314 32.0846C145.989 31.7357 145.535 31.5612 144.954 31.5612C144.372 31.5612 143.913 31.7357 143.575 32.0846C143.25 32.4219 143.087 32.9045 143.087 33.5326V38.8187H140.104V29.0839H143.087V30.3051C143.389 29.8981 143.785 29.5782 144.273 29.3456C144.762 29.1014 145.314 28.9792 145.93 28.9792C146.663 28.9792 147.315 29.1363 147.885 29.4503C148.466 29.7643 148.92 30.2121 149.245 30.7936C149.583 30.2586 150.042 29.8225 150.624 29.4852C151.205 29.1479 151.839 28.9792 152.525 28.9792Z" fill="#6687A6"/>
</g>
<defs>
<clipPath id="clip0_16_2991">
<rect width="130" height="22.7922" fill="white" transform="translate(26.75 21.5604)"/>
</clipPath>
</defs>
</svg>
