<svg width="183" height="66" viewBox="0 0 183 66" fill="none" xmlns="http://www.w3.org/2000/svg">
<rect width="182.5" height="65.913" rx="10" fill="#F8F8F8"/>
<g clip-path="url(#clip0_16_3030)">
<path d="M64.1062 39.4126H73.4102V36.6103H67.413V26.0546H64.1062V39.4126Z" fill="#6687A6"/>
<path d="M78.9224 37.5444C77.5959 37.5444 76.9047 36.3861 76.9047 34.6486C76.9047 32.9111 77.5959 31.7341 78.9224 31.7341C80.2488 31.7341 80.9588 32.9111 80.9588 34.6486C80.9588 36.3861 80.2488 37.5444 78.9224 37.5444ZM78.9411 39.7116C82.0237 39.7116 84.0414 37.5257 84.0414 34.6486C84.0414 31.7714 82.0237 29.5856 78.9411 29.5856C75.8771 29.5856 73.822 31.7714 73.822 34.6486C73.822 37.5257 75.8771 39.7116 78.9411 39.7116Z" fill="#6687A6"/>
<path d="M89.3774 42.7195C90.7973 42.7195 92.049 42.4019 92.8897 41.6546C93.6557 40.9633 94.1601 39.9171 94.1601 38.4785V29.8471H91.2457V30.8747H91.2083C90.6478 30.0713 89.7884 29.5669 88.518 29.5669C86.1453 29.5669 84.5012 31.5473 84.5012 34.3496C84.5012 37.2828 86.5003 38.8895 88.6488 38.8895C89.8071 38.8895 90.5357 38.4225 91.0962 37.7873H91.1709V38.7401C91.1709 39.8984 90.6291 40.571 89.34 40.571C88.3312 40.571 87.8267 40.1413 87.6586 39.6368H84.7067C85.0057 41.6359 86.7431 42.7195 89.3774 42.7195ZM89.3587 36.6289C88.2191 36.6289 87.4718 35.6948 87.4718 34.2562C87.4718 32.799 88.2191 31.8649 89.3587 31.8649C90.6291 31.8649 91.3017 32.9485 91.3017 34.2376C91.3017 35.5827 90.6852 36.6289 89.3587 36.6289Z" fill="#6687A6"/>
<path d="M100.153 37.5444C98.8264 37.5444 98.1351 36.3861 98.1351 34.6486C98.1351 32.9111 98.8264 31.7341 100.153 31.7341C101.479 31.7341 102.189 32.9111 102.189 34.6486C102.189 36.3861 101.479 37.5444 100.153 37.5444ZM100.172 39.7116C103.254 39.7116 105.272 37.5257 105.272 34.6486C105.272 31.7714 103.254 29.5856 100.172 29.5856C97.1076 29.5856 95.0525 31.7714 95.0525 34.6486C95.0525 37.5257 97.1076 39.7116 100.172 39.7116Z" fill="#6687A6"/>
<path d="M106.161 39.4126H109.206V29.8471H106.161V39.4126ZM106.161 28.5207H109.206V26.0546H106.161V28.5207Z" fill="#6687A6"/>
<path d="M110.527 42.57H113.573V38.4225H113.61C114.208 39.2258 115.086 39.7116 116.319 39.7116C118.822 39.7116 120.485 37.7312 120.485 34.6299C120.485 31.7528 118.935 29.5669 116.394 29.5669C115.086 29.5669 114.152 30.1461 113.498 31.0055H113.442V29.8471H110.527V42.57ZM115.534 37.3576C114.227 37.3576 113.479 36.2926 113.479 34.742C113.479 33.1913 114.152 32.0143 115.478 32.0143C116.786 32.0143 117.403 33.0979 117.403 34.742C117.403 36.3674 116.693 37.3576 115.534 37.3576Z" fill="#6687A6"/>
<path d="M125.444 39.7116C127.947 39.7116 129.797 38.628 129.797 36.5355C129.797 34.0881 127.817 33.6584 126.135 33.3782C124.921 33.154 123.837 33.0605 123.837 32.388C123.837 31.7901 124.416 31.5099 125.164 31.5099C126.004 31.5099 126.584 31.7714 126.696 32.6308H129.498C129.349 30.7439 127.891 29.5669 125.182 29.5669C122.922 29.5669 121.054 30.6131 121.054 32.6308C121.054 34.8728 122.828 35.3211 124.491 35.6014C125.762 35.8256 126.92 35.919 126.92 36.7784C126.92 37.3949 126.341 37.7312 125.425 37.7312C124.416 37.7312 123.781 37.2641 123.669 36.3113H120.792C120.885 38.4225 122.642 39.7116 125.444 39.7116Z" fill="#6687A6"/>
<path d="M133.933 39.6928C135.259 39.6928 136.1 39.1697 136.791 38.2355H136.847V39.4126H139.762V29.847H136.716V35.1903C136.716 36.3299 136.081 37.1146 135.035 37.1146C134.063 37.1146 133.596 36.5354 133.596 35.4892V29.847H130.57V36.1244C130.57 38.2542 131.728 39.6928 133.933 39.6928Z" fill="#6687A6"/>
<path d="M141.087 39.4126H144.132V34.0507C144.132 32.9111 144.692 32.1077 145.645 32.1077C146.561 32.1077 146.99 32.7056 146.99 33.7331V39.4126H150.036V34.0507C150.036 32.9111 150.577 32.1077 151.549 32.1077C152.464 32.1077 152.894 32.7056 152.894 33.7331V39.4126H155.939V33.1913C155.939 31.0428 154.856 29.5669 152.689 29.5669C151.456 29.5669 150.428 30.09 149.681 31.2483H149.643C149.158 30.2208 148.205 29.5669 146.953 29.5669C145.571 29.5669 144.655 30.2208 144.057 31.211H144.001V29.8471H141.087V39.4126Z" fill="#6687A6"/>
<path fill-rule="evenodd" clip-rule="evenodd" d="M32.9867 20.0277C31.873 20.8064 30.8659 21.7271 29.9917 22.7635C33.5642 22.4319 38.1029 22.9734 43.3724 25.6082C48.9994 28.4216 53.5306 28.5167 56.6841 27.9085C56.3979 27.0421 56.0376 26.2095 55.611 25.418C52.0011 25.7987 47.3733 25.2948 41.9799 22.5982C38.5551 20.8857 35.5361 20.1803 32.9867 20.0277ZM53.5023 22.4165C50.6515 19.2314 46.5087 17.2269 41.8977 17.2269C40.5436 17.2269 39.2297 17.3998 37.9772 17.7247C39.6736 18.1876 41.4757 18.8648 43.3724 19.8131C47.3211 21.7875 50.7302 22.4232 53.5023 22.4165ZM57.3583 30.9494C53.5486 31.7017 48.2878 31.5471 41.9799 28.3932C36.0827 25.4446 31.3891 25.4818 28.2235 26.1852C28.0601 26.2215 27.9006 26.2597 27.7449 26.2994C27.3304 27.2007 26.9996 28.1485 26.7622 29.1328C27.0157 29.0651 27.2777 29.0007 27.548 28.9406C31.3884 28.0872 36.8145 28.1243 43.3724 31.4032C49.2696 34.3518 53.9632 34.3147 57.1289 33.6112C57.2373 33.5871 57.3442 33.5622 57.4493 33.5365C57.4608 33.2911 57.4665 33.0441 57.4665 32.7958C57.4665 32.1711 57.4298 31.5549 57.3583 30.9494ZM56.9409 36.8221C53.1682 37.4817 48.0606 37.2285 41.9799 34.1883C36.0827 31.2397 31.3891 31.2768 28.2235 31.9803C27.5208 32.1364 26.8887 32.3265 26.3311 32.5273C26.3296 32.6166 26.3289 32.7061 26.3289 32.7958C26.3289 41.3942 33.2993 48.3646 41.8977 48.3646C49.1038 48.3646 55.1665 43.4689 56.9409 36.8221Z" fill="#4A4170"/>
</g>
<defs>
<clipPath id="clip0_16_3030">
<rect width="130" height="31.9162" fill="white" transform="translate(26.25 16.9984)"/>
</clipPath>
</defs>
</svg>
