<svg width="183" height="66" viewBox="0 0 183 66" fill="none" xmlns="http://www.w3.org/2000/svg">
<rect x="0.5" width="182.5" height="65.913" rx="10" fill="#F8F8F8"/>
<path d="M37.4023 46.7617L34.3384 41.4549L38.8348 33.6882L41.6921 38.6376L58.5593 38.6285L53.7731 46.835L37.4023 46.7617Z" fill="#4A4170"/>
<path d="M61.5713 33.359L58.5074 38.6657L49.5331 38.6552L52.3906 33.7059L43.9492 19.103L53.4493 19.1447L61.5713 33.359Z" fill="#4A4170"/>
<path d="M37.8744 19.0747H44.0022L48.4802 26.8521L42.7651 26.8519L34.3395 41.4639L29.6255 33.2157L37.8744 19.0747Z" fill="#4A4170"/>
<path fill-rule="evenodd" clip-rule="evenodd" d="M44.7494 17.846L44.7311 17.8143H37.1506L28.1702 33.2094L34.3347 43.9956L34.3423 43.9825L36.6728 48.019L54.4954 48.0987L60.7543 37.3668H60.7127L63.0248 33.3622L54.1826 17.8874L44.7494 17.846ZM50.6133 28.1126H50.6606L46.2045 20.3734L52.7159 20.402L60.1176 33.3557L57.8009 37.3685L51.7295 37.3717L53.8463 33.7055L50.6133 28.1126ZM43.2057 20.3353L46.2441 25.5916L42.0372 25.5915L34.8348 38.0817L34.3436 38.9304L31.0812 33.2222L38.5986 20.3353H43.2057ZM40.2843 33.6778L43.4934 28.1124L47.7015 28.1126L50.9349 33.7062L48.8176 37.3733L42.4198 37.3768L40.2843 33.6778ZM35.7969 41.46L37.0177 39.3427L38.8333 36.2066L40.9647 39.8985L47.3615 39.8951L47.3511 39.913L56.3449 39.9236L53.0511 45.5713L38.132 45.5046L35.7969 41.46Z" fill="#6687A6"/>
<path d="M108.938 27.0395C109.801 27.0395 110.503 26.338 110.503 25.4568C110.503 24.5756 109.801 23.8922 108.938 23.8922C108.057 23.8922 107.355 24.5756 107.355 25.4568C107.355 26.338 108.057 27.0395 108.938 27.0395ZM107.535 37.4343H110.323V28.4422H107.535V37.4343Z" fill="#4A4170"/>
<path d="M111.946 41.7505H114.679V36.5351C115.201 37.2185 116.388 37.6861 117.629 37.6861C120.308 37.6861 121.927 35.6359 121.855 32.7944C121.783 29.8989 120.11 28.1544 117.611 28.1544C116.334 28.1544 115.129 28.7119 114.625 29.5392L114.481 28.4422H111.946V41.7505ZM114.733 32.9382C114.733 31.5894 115.632 30.6903 116.927 30.6903C118.24 30.6903 119.067 31.6074 119.067 32.9382C119.067 34.269 118.24 35.1863 116.927 35.1863C115.632 35.1863 114.733 34.287 114.733 32.9382Z" fill="#4A4170"/>
<path d="M122.15 34.5928C122.222 36.4092 123.661 37.6681 125.927 37.6681C128.103 37.6681 129.614 36.5171 129.614 34.6647C129.614 33.3339 128.823 32.4527 127.347 32.0929L125.747 31.6973C125.171 31.5534 124.811 31.4096 124.811 30.942C124.811 30.4744 125.189 30.1687 125.747 30.1687C126.376 30.1687 126.79 30.5823 126.772 31.1938H129.272C129.2 29.3234 127.779 28.1544 125.801 28.1544C123.804 28.1544 122.312 29.3414 122.312 31.1398C122.312 32.3448 122.977 33.3339 124.758 33.8015L126.34 34.2152C126.808 34.341 127.005 34.5568 127.005 34.8625C127.005 35.3121 126.592 35.5999 125.891 35.5999C125.082 35.5999 124.65 35.2223 124.65 34.5928H122.15Z" fill="#4A4170"/>
<path d="M133.853 37.6681C134.95 37.6681 136.047 37.1646 136.605 36.4273L136.785 37.4343H139.392V28.4423H136.623V33.1181C136.623 34.4669 136.227 35.2043 134.95 35.2043C133.96 35.2043 133.313 34.7547 133.313 33.0821V28.4423H130.544V34.0893C130.544 36.2294 131.731 37.6681 133.853 37.6681Z" fill="#4A4170"/>
<path d="M143.784 37.4343V32.5246C143.784 31.014 144.593 30.5824 145.384 30.5824C146.266 30.5824 146.842 31.1219 146.842 32.2369V37.4343H149.574V32.5246C149.574 30.996 150.366 30.5644 151.157 30.5644C152.039 30.5644 152.632 31.1039 152.632 32.2369V37.4343H155.329V31.5535C155.329 29.5033 154.251 28.1365 151.93 28.1365C150.636 28.1365 149.574 28.7659 149.107 29.7371C148.567 28.7659 147.633 28.1365 146.14 28.1365C145.151 28.1365 144.233 28.5861 143.694 29.3054L143.586 28.4423H140.996V37.4343H143.784Z" fill="#4A4170"/>
<path d="M70.9538 24.1273H68.0044V37.4357H76.1692V34.8279H70.9538V24.1273Z" fill="#6687A6"/>
<path d="M76.4509 32.9216C76.4509 35.7631 78.3573 37.6515 81.2347 37.6515C84.0943 37.6515 86.0006 35.7631 86.0006 32.9216C86.0006 30.0801 84.0943 28.1737 81.2347 28.1737C78.3573 28.1737 76.4509 30.0801 76.4509 32.9216ZM79.2385 32.9036C79.2385 31.5547 80.0298 30.6556 81.2347 30.6556C82.4217 30.6556 83.213 31.5547 83.213 32.9036C83.213 34.2704 82.4217 35.1696 81.2347 35.1696C80.0298 35.1696 79.2385 34.2704 79.2385 32.9036Z" fill="#6687A6"/>
<path d="M86.446 32.7777C86.446 35.4934 88.2086 37.3277 90.7084 37.3277C91.9133 37.3277 92.9564 36.8961 93.4779 36.1947V37.4356C93.4779 38.6766 92.7046 39.5038 91.3378 39.5038C90.1149 39.5038 89.2696 38.9283 89.2156 37.9032H86.4102C86.6619 40.3671 88.5683 42.0216 91.176 42.0216C94.2512 42.0216 96.1935 40.0254 96.1935 36.8602V28.4435H93.6937L93.5499 29.3608C93.0463 28.6233 91.9853 28.1378 90.7623 28.1378C88.2445 28.1378 86.446 30.0261 86.446 32.7777ZM89.2516 32.7058C89.2516 31.4109 90.1149 30.5477 91.2119 30.5477C92.4888 30.5477 93.4239 31.3929 93.4239 32.7058C93.4239 34.0186 92.5068 34.9178 91.2299 34.9178C90.1329 34.9178 89.2516 34.0186 89.2516 32.7058Z" fill="#6687A6"/>
<path d="M97.0007 32.9216C97.0007 35.7631 98.907 37.6515 101.785 37.6515C104.644 37.6515 106.55 35.7631 106.55 32.9216C106.55 30.0801 104.644 28.1737 101.785 28.1737C98.907 28.1737 97.0007 30.0801 97.0007 32.9216ZM99.7883 32.9036C99.7883 31.5547 100.58 30.6556 101.785 30.6556C102.972 30.6556 103.763 31.5547 103.763 32.9036C103.763 34.2704 102.972 35.1696 101.785 35.1696C100.58 35.1696 99.7883 34.2704 99.7883 32.9036Z" fill="#6687A6"/>
</svg>
