<svg width="183" height="66" viewBox="0 0 183 66" fill="none" xmlns="http://www.w3.org/2000/svg">
<rect width="182.5" height="65.913" rx="10" fill="#F8F8F8"/>
<g clip-path="url(#clip0_16_2979)">
<path d="M65.9077 38.7973H75.0475V36.0443H69.1562V25.6749H65.9077V38.7973Z" fill="#6687A6"/>
<path d="M80.4625 36.962C79.1594 36.962 78.4804 35.8241 78.4804 34.1173C78.4804 32.4105 79.1594 31.2543 80.4625 31.2543C81.7656 31.2543 82.463 32.4105 82.463 34.1173C82.463 35.8241 81.7656 36.962 80.4625 36.962ZM80.4809 39.091C83.5091 39.091 85.4912 36.9437 85.4912 34.1173C85.4912 31.291 83.5091 29.1437 80.4809 29.1437C77.471 29.1437 75.4521 31.291 75.4521 34.1173C75.4521 36.9437 77.471 39.091 80.4809 39.091Z" fill="#6687A6"/>
<path d="M90.7327 42.0458C92.1276 42.0458 93.3572 41.7338 94.1831 40.9997C94.9356 40.3207 95.4311 39.2929 95.4311 37.8797V29.4007H92.568V30.4101H92.5313C91.9807 29.6209 91.1365 29.1254 89.8885 29.1254C87.5577 29.1254 85.9426 31.0708 85.9426 33.8237C85.9426 36.7051 87.9064 38.2835 90.017 38.2835C91.1549 38.2835 91.8706 37.8247 92.4212 37.2007H92.4946V38.1367C92.4946 39.2745 91.9624 39.9352 90.696 39.9352C89.705 39.9352 89.2095 39.5131 89.0443 39.0176H86.1445C86.4382 40.9814 88.145 42.0458 90.7327 42.0458ZM90.7144 36.0628C89.5949 36.0628 88.8607 35.1451 88.8607 33.732C88.8607 32.3004 89.5949 31.3828 90.7144 31.3828C91.9624 31.3828 92.6231 32.4472 92.6231 33.7136C92.6231 35.035 92.0174 36.0628 90.7144 36.0628Z" fill="#6687A6"/>
<path d="M101.318 36.962C100.015 36.962 99.3361 35.8241 99.3361 34.1173C99.3361 32.4105 100.015 31.2543 101.318 31.2543C102.621 31.2543 103.319 32.4105 103.319 34.1173C103.319 35.8241 102.621 36.962 101.318 36.962ZM101.337 39.091C104.365 39.091 106.347 36.9437 106.347 34.1173C106.347 31.291 104.365 29.1437 101.337 29.1437C98.3267 29.1437 96.3079 31.291 96.3079 34.1173C96.3079 36.9437 98.3267 39.091 101.337 39.091Z" fill="#6687A6"/>
<path d="M107.22 38.7973H110.212V29.4006H107.22V38.7973ZM107.22 28.0975H110.212V25.6749H107.22V28.0975Z" fill="#6687A6"/>
<path d="M111.51 41.899H114.502V37.8247H114.538C115.126 38.6138 115.988 39.091 117.199 39.091C119.659 39.091 121.292 37.1456 121.292 34.099C121.292 31.2727 119.769 29.1254 117.273 29.1254C115.988 29.1254 115.07 29.6943 114.428 30.5385H114.373V29.4007H111.51V41.899ZM116.429 36.7785C115.144 36.7785 114.41 35.7324 114.41 34.2091C114.41 32.6858 115.07 31.5296 116.374 31.5296C117.658 31.5296 118.264 32.5941 118.264 34.2091C118.264 35.8058 117.566 36.7785 116.429 36.7785Z" fill="#6687A6"/>
<path d="M126.163 39.091C128.622 39.091 130.439 38.0265 130.439 35.971C130.439 33.5668 128.493 33.1447 126.842 32.8694C125.649 32.6491 124.584 32.5574 124.584 31.8967C124.584 31.3094 125.153 31.0341 125.887 31.0341C126.713 31.0341 127.282 31.291 127.392 32.1352H130.145C129.998 30.2816 128.567 29.1254 125.906 29.1254C123.685 29.1254 121.85 30.1531 121.85 32.1352C121.85 34.3376 123.593 34.7781 125.227 35.0534C126.475 35.2736 127.613 35.3654 127.613 36.2096C127.613 36.8152 127.044 37.1456 126.144 37.1456C125.153 37.1456 124.529 36.6868 124.419 35.7508H121.593C121.685 37.8247 123.41 39.091 126.163 39.091Z" fill="#6687A6"/>
<path d="M134.503 39.0726C135.806 39.0726 136.631 38.5588 137.311 37.6411H137.366V38.7973H140.229V29.4006H137.237V34.6496C137.237 35.7691 136.613 36.5399 135.585 36.5399C134.631 36.5399 134.172 35.971 134.172 34.9432V29.4006H131.199V35.5672C131.199 37.6595 132.337 39.0726 134.503 39.0726Z" fill="#6687A6"/>
<path d="M141.529 38.7974H144.521V33.5301C144.521 32.4105 145.071 31.6214 146.007 31.6214C146.907 31.6214 147.329 32.2087 147.329 33.2181V38.7974H150.32V33.5301C150.32 32.4105 150.853 31.6214 151.807 31.6214C152.706 31.6214 153.128 32.2087 153.128 33.2181V38.7974H156.12V32.6858C156.12 30.5752 155.055 29.1254 152.926 29.1254C151.715 29.1254 150.706 29.6392 149.972 30.7771H149.935C149.458 29.7677 148.522 29.1254 147.292 29.1254C145.934 29.1254 145.035 29.7677 144.447 30.7404H144.392V29.4007H141.529V38.7974Z" fill="#6687A6"/>
<path fill-rule="evenodd" clip-rule="evenodd" d="M42.0673 47.9738C50.514 47.9738 57.3614 41.1264 57.3614 32.6797C57.3614 24.233 50.514 17.3856 42.0673 17.3856C33.6206 17.3856 26.7732 24.233 26.7732 32.6797C26.7732 41.1264 33.6206 47.9738 42.0673 47.9738ZM46.8386 24.5103C47.0708 23.6853 46.2702 23.1975 45.5391 23.7184L35.3326 30.9894C34.5397 31.5543 34.6644 32.6797 35.52 32.6797H38.2076V32.6589H43.4457L39.1777 34.1648L37.2961 40.8492C37.0639 41.6742 37.8643 42.162 38.5956 41.6411L48.802 34.3701C49.5949 33.8052 49.4701 32.6797 48.6147 32.6797H44.5389L46.8386 24.5103Z" fill="#4A4170"/>
</g>
<defs>
<clipPath id="clip0_16_2979">
<rect width="130" height="31.3529" fill="white" transform="translate(26.25 17.28)"/>
</clipPath>
</defs>
</svg>
