<svg width="183" height="66" viewBox="0 0 183 66" fill="none" xmlns="http://www.w3.org/2000/svg">
<rect width="182.5" height="65.913" rx="10" fill="#F8F8F8"/>
<g clip-path="url(#clip0_16_3005)">
<path d="M26.9966 40.7581L26.9966 24.7946L34.9783 29.2289V36.3681L41.3638 39.9599L47.7492 36.3681V29.2289L55.731 24.7946V40.7581L41.3638 48.7399L26.9966 40.7581Z" fill="#6687A6"/>
<path fill-rule="evenodd" clip-rule="evenodd" d="M30.9875 27.0117L26.9966 24.7945L41.3638 16.8127L55.731 24.7945L51.7401 27.0117V38.7626L41.3638 44.749L30.9875 38.7626L30.9875 27.0117ZM51.3078 27.2519L47.7492 29.2288V29.1845L41.3638 25.5927L34.9783 29.1845V29.2288L31.4198 27.2519V38.5171L41.3638 44.254L51.3078 38.5171V27.2519Z" fill="url(#paint0_linear_16_3005)"/>
<path d="M63.3809 39.4965V26.0872H65.9095V37.1977H72.0395V39.4965H63.3809Z" fill="#6687A6"/>
<path d="M77.4987 39.7647C76.5537 39.7647 75.7044 39.5732 74.9509 39.19C74.1974 38.8068 73.6036 38.2513 73.1694 37.5234C72.7352 36.7955 72.5181 35.9207 72.5181 34.899V34.5925C72.5181 33.5708 72.7352 32.696 73.1694 31.9681C73.6036 31.2402 74.1974 30.6846 74.9509 30.3015C75.7044 29.9183 76.5537 29.7268 77.4987 29.7268C78.4438 29.7268 79.293 29.9183 80.0465 30.3015C80.8 30.6846 81.3938 31.2402 81.828 31.9681C82.2622 32.696 82.4794 33.5708 82.4794 34.5925V34.899C82.4794 35.9207 82.2622 36.7955 81.828 37.5234C81.3938 38.2513 80.8 38.8068 80.0465 39.19C79.293 39.5732 78.4438 39.7647 77.4987 39.7647ZM77.4987 37.6192C78.2394 37.6192 78.8525 37.383 79.3377 36.9104C79.823 36.4251 80.0656 35.7354 80.0656 34.8415V34.65C80.0656 33.756 79.823 33.0727 79.3377 32.6002C78.8652 32.115 78.2522 31.8723 77.4987 31.8723C76.758 31.8723 76.145 32.115 75.6597 32.6002C75.1744 33.0727 74.9318 33.756 74.9318 34.65V34.8415C74.9318 35.7354 75.1744 36.4251 75.6597 36.9104C76.145 37.383 76.758 37.6192 77.4987 37.6192Z" fill="#6687A6"/>
<path d="M83.3857 34.7841V34.4776C83.3857 33.4814 83.5836 32.6322 83.9796 31.9298C84.3754 31.2146 84.8991 30.6718 85.5504 30.3015C86.2145 29.9183 86.936 29.7268 87.715 29.7268C88.5834 29.7268 89.2412 29.8801 89.6881 30.1866C90.1351 30.493 90.4608 30.8123 90.6651 31.1444H91.0099V29.995H93.3853V41.1823C93.3853 41.8335 93.1937 42.3507 92.8106 42.7339C92.4275 43.1298 91.9166 43.3278 91.2781 43.3278H84.9182V41.2206H90.4352C90.7928 41.2206 90.9716 41.029 90.9716 40.6459V38.1747H90.6267C90.499 38.379 90.3203 38.5897 90.0904 38.8068C89.8605 39.0112 89.554 39.1836 89.1709 39.3241C88.7878 39.4646 88.3025 39.5348 87.715 39.5348C86.936 39.5348 86.2145 39.3496 85.5504 38.9792C84.8991 38.5961 84.3754 38.0533 83.9796 37.351C83.5836 36.6358 83.3857 35.7802 83.3857 34.7841ZM88.4047 37.4277C89.1453 37.4277 89.7647 37.1914 90.2628 36.7189C90.7609 36.2463 91.0099 35.5822 91.0099 34.7266V34.535C91.0099 33.6666 90.7609 33.0026 90.2628 32.5428C89.7775 32.0703 89.1582 31.834 88.4047 31.834C87.6639 31.834 87.0445 32.0703 86.5465 32.5428C86.0484 33.0026 85.7994 33.6666 85.7994 34.535V34.7266C85.7994 35.5822 86.0484 36.2463 86.5465 36.7189C87.0445 37.1914 87.6639 37.4277 88.4047 37.4277Z" fill="#6687A6"/>
<path d="M99.7201 39.7647C98.775 39.7647 97.9258 39.5732 97.1723 39.19C96.4188 38.8068 95.825 38.2513 95.3908 37.5234C94.9566 36.7955 94.7395 35.9207 94.7395 34.899V34.5925C94.7395 33.5708 94.9566 32.696 95.3908 31.9681C95.825 31.2402 96.4188 30.6846 97.1723 30.3015C97.9258 29.9183 98.775 29.7268 99.7201 29.7268C100.665 29.7268 101.514 29.9183 102.268 30.3015C103.021 30.6846 103.615 31.2402 104.049 31.9681C104.484 32.696 104.701 33.5708 104.701 34.5925V34.899C104.701 35.9207 104.484 36.7955 104.049 37.5234C103.615 38.2513 103.021 38.8068 102.268 39.19C101.514 39.5732 100.665 39.7647 99.7201 39.7647ZM99.7201 37.6192C100.461 37.6192 101.074 37.383 101.559 36.9104C102.044 36.4251 102.287 35.7354 102.287 34.8415V34.65C102.287 33.756 102.044 33.0727 101.559 32.6002C101.087 32.115 100.474 31.8723 99.7201 31.8723C98.9794 31.8723 98.3664 32.115 97.8811 32.6002C97.3958 33.0727 97.1532 33.756 97.1532 34.65V34.8415C97.1532 35.7354 97.3958 36.4251 97.8811 36.9104C98.3664 37.383 98.9794 37.6192 99.7201 37.6192Z" fill="#6687A6"/>
<path d="M106.067 39.4965V29.9949H108.48V39.4965H106.067ZM107.274 28.8839C106.839 28.8839 106.469 28.7434 106.162 28.4624C105.869 28.1814 105.722 27.8111 105.722 27.3514C105.722 26.8916 105.869 26.5213 106.162 26.2403C106.469 25.9594 106.839 25.8188 107.274 25.8188C107.721 25.8188 108.091 25.9594 108.385 26.2403C108.678 26.5213 108.825 26.8916 108.825 27.3514C108.825 27.8111 108.678 28.1814 108.385 28.4624C108.091 28.7434 107.721 28.8839 107.274 28.8839Z" fill="#6687A6"/>
<path d="M110.293 43.3278V29.995H112.668V31.1444H113.013C113.23 30.774 113.568 30.4483 114.029 30.1674C114.488 29.8736 115.146 29.7268 116.002 29.7268C116.768 29.7268 117.477 29.9183 118.128 30.3015C118.779 30.6718 119.303 31.221 119.699 31.949C120.095 32.6769 120.293 33.5581 120.293 34.5925V34.899C120.293 35.9334 120.095 36.8146 119.699 37.5425C119.303 38.2705 118.779 38.826 118.128 39.2092C117.477 39.5795 116.768 39.7647 116.002 39.7647C115.427 39.7647 114.941 39.6944 114.545 39.554C114.162 39.4263 113.85 39.2602 113.607 39.0559C113.377 38.8388 113.192 38.6217 113.052 38.4046H112.707V43.3278H110.293ZM115.274 37.6575C116.027 37.6575 116.647 37.4212 117.132 36.9487C117.63 36.4634 117.879 35.761 117.879 34.8415V34.65C117.879 33.7305 117.63 33.0344 117.132 32.5619C116.634 32.0767 116.014 31.834 115.274 31.834C114.533 31.834 113.913 32.0767 113.415 32.5619C112.917 33.0344 112.668 33.7305 112.668 34.65V34.8415C112.668 35.761 112.917 36.4634 113.415 36.9487C113.913 37.4212 114.533 37.6575 115.274 37.6575Z" fill="#6687A6"/>
<path d="M125.593 39.7647C124.354 39.7647 123.339 39.4965 122.547 38.9601C121.756 38.4237 121.277 37.6575 121.11 36.6613L123.333 36.0867C123.422 36.5336 123.569 36.8849 123.773 37.1403C123.991 37.3957 124.252 37.5808 124.559 37.6958C124.878 37.7979 125.223 37.8491 125.593 37.8491C126.155 37.8491 126.57 37.7532 126.839 37.5617C127.106 37.3574 127.241 37.1083 127.241 36.8146C127.241 36.5209 127.113 36.2974 126.857 36.1441C126.602 35.9781 126.194 35.844 125.631 35.7419L125.095 35.6461C124.431 35.5183 123.824 35.346 123.275 35.1289C122.726 34.899 122.285 34.5861 121.953 34.1902C121.622 33.7943 121.455 33.2835 121.455 32.6577C121.455 31.7127 121.8 30.9911 122.49 30.493C123.179 29.9822 124.087 29.7268 125.21 29.7268C126.27 29.7268 127.151 29.9631 127.853 30.4356C128.556 30.9081 129.015 31.5275 129.233 32.2938L126.992 32.9833C126.89 32.4981 126.679 32.1532 126.359 31.949C126.053 31.7446 125.669 31.6424 125.21 31.6424C124.75 31.6424 124.399 31.7254 124.156 31.8914C123.914 32.0447 123.793 32.2618 123.793 32.5428C123.793 32.8493 123.92 33.0791 124.176 33.2324C124.431 33.3728 124.776 33.4814 125.21 33.5581L125.746 33.6538C126.461 33.7815 127.106 33.9539 127.681 34.171C128.269 34.3754 128.728 34.6755 129.061 35.0714C129.405 35.4545 129.578 35.9781 129.578 36.6422C129.578 37.6384 129.213 38.411 128.485 38.9601C127.771 39.4965 126.806 39.7647 125.593 39.7647Z" fill="#6687A6"/>
<path d="M134.451 39.6496C133.711 39.6496 133.059 39.4836 132.497 39.1516C131.949 38.8068 131.52 38.3342 131.214 37.734C130.908 37.1338 130.754 36.4441 130.754 35.6652V29.9949H133.168V35.4736C133.168 36.1887 133.34 36.7251 133.685 37.0827C134.042 37.4403 134.547 37.6191 135.199 37.6191C135.939 37.6191 136.514 37.3764 136.923 36.8912C137.331 36.3931 137.535 35.7035 137.535 34.8223V29.9949H139.949V39.4964H137.573V38.2512H137.229C137.075 38.5705 136.788 38.8834 136.367 39.1899C135.945 39.4964 135.306 39.6496 134.451 39.6496Z" fill="#6687A6"/>
<path d="M141.773 39.4964V29.9949H144.148V31.0293H144.493C144.659 30.71 144.934 30.4355 145.316 30.2056C145.7 29.963 146.204 29.8417 146.83 29.8417C147.507 29.8417 148.05 29.9758 148.458 30.2439C148.867 30.4993 149.18 30.8377 149.397 31.2592H149.741C149.959 30.8506 150.266 30.5122 150.662 30.2439C151.058 29.9758 151.619 29.8417 152.347 29.8417C152.934 29.8417 153.465 29.9694 153.937 30.2248C154.422 30.4674 154.805 30.8441 155.087 31.355C155.38 31.853 155.527 32.4852 155.527 33.2515V39.4964H153.113V33.4239C153.113 32.9002 152.98 32.5108 152.711 32.2553C152.443 31.9872 152.066 31.853 151.581 31.853C151.032 31.853 150.604 32.0319 150.297 32.3894C150.004 32.7342 149.857 33.2323 149.857 33.8837V39.4964H147.443V33.4239C147.443 32.9002 147.309 32.5108 147.041 32.2553C146.773 31.9872 146.396 31.853 145.91 31.853C145.361 31.853 144.934 32.0319 144.627 32.3894C144.333 32.7342 144.186 33.2323 144.186 33.8837V39.4964H141.773Z" fill="#6687A6"/>
</g>
<defs>
<linearGradient id="paint0_linear_16_3005" x1="30.9875" y1="23.0208" x2="52.5383" y2="23.0208" gradientUnits="userSpaceOnUse">
<stop stop-color="#CCCCCC"/>
<stop offset="0.307292" stop-color="#CCCCCC"/>
<stop offset="0.604167" stop-color="#CCCCCC"/>
<stop offset="1" stop-color="#CCCCCC"/>
</linearGradient>
<clipPath id="clip0_16_3005">
<rect width="130" height="32.2876" fill="white" transform="translate(26.25 16.8127)"/>
</clipPath>
</defs>
</svg>
