<svg width="183" height="66" viewBox="0 0 183 66" fill="none" xmlns="http://www.w3.org/2000/svg">
<rect x="0.5" width="182.5" height="65.913" rx="10" fill="#F8F8F8"/>
<g clip-path="url(#clip0_16_3018)">
<path d="M65.873 39.3821H75.0669V36.6129H69.1407V26.1821H65.873V39.3821Z" fill="#6687A6"/>
<path d="M80.5141 37.536C79.2034 37.536 78.5203 36.3914 78.5203 34.6745C78.5203 32.9575 79.2034 31.7945 80.5141 31.7945C81.8249 31.7945 82.5264 32.9575 82.5264 34.6745C82.5264 36.3914 81.8249 37.536 80.5141 37.536ZM80.5326 39.6775C83.5787 39.6775 85.5726 37.5175 85.5726 34.6745C85.5726 31.8314 83.5787 29.6714 80.5326 29.6714C77.5049 29.6714 75.4741 31.8314 75.4741 34.6745C75.4741 37.5175 77.5049 39.6775 80.5326 39.6775Z" fill="#6687A6"/>
<path d="M90.8451 42.6498C92.2481 42.6498 93.4851 42.3359 94.3158 41.5974C95.0728 40.9144 95.5712 39.8805 95.5712 38.459V29.9298H92.6912V30.9451H92.6543C92.1005 30.1513 91.2512 29.6528 89.9958 29.6528C87.6512 29.6528 86.0266 31.6098 86.0266 34.379C86.0266 37.2774 88.002 38.8651 90.1251 38.8651C91.2697 38.8651 91.9897 38.4036 92.5435 37.7759H92.6174V38.7174C92.6174 39.8621 92.082 40.5267 90.8082 40.5267C89.8112 40.5267 89.3128 40.1021 89.1466 39.6036H86.2297C86.5251 41.579 88.242 42.6498 90.8451 42.6498ZM90.8266 36.6313C89.7005 36.6313 88.962 35.7082 88.962 34.2867C88.962 32.8467 89.7005 31.9236 90.8266 31.9236C92.082 31.9236 92.7466 32.9944 92.7466 34.2682C92.7466 35.5974 92.1374 36.6313 90.8266 36.6313Z" fill="#6687A6"/>
<path d="M101.493 37.536C100.182 37.536 99.4993 36.3914 99.4993 34.6745C99.4993 32.9575 100.182 31.7945 101.493 31.7945C102.804 31.7945 103.505 32.9575 103.505 34.6745C103.505 36.3914 102.804 37.536 101.493 37.536ZM101.512 39.6775C104.558 39.6775 106.552 37.5175 106.552 34.6745C106.552 31.8314 104.558 29.6714 101.512 29.6714C98.4839 29.6714 96.4531 31.8314 96.4531 34.6745C96.4531 37.5175 98.4839 39.6775 101.512 39.6775Z" fill="#6687A6"/>
<path d="M107.43 39.3821H110.439V29.9298H107.43V39.3821ZM107.43 28.6191H110.439V26.1821H107.43V28.6191Z" fill="#6687A6"/>
<path d="M111.745 42.5021H114.755V38.4036H114.792C115.382 39.1974 116.25 39.6774 117.468 39.6774C119.942 39.6774 121.585 37.7205 121.585 34.6559C121.585 31.8128 120.053 29.6528 117.542 29.6528C116.25 29.6528 115.327 30.2251 114.681 31.0744H114.625V29.9298H111.745V42.5021ZM116.693 37.3513C115.401 37.3513 114.662 36.299 114.662 34.7667C114.662 33.2344 115.327 32.0713 116.638 32.0713C117.93 32.0713 118.539 33.1421 118.539 34.7667C118.539 36.3728 117.838 37.3513 116.693 37.3513Z" fill="#6687A6"/>
<path d="M126.485 39.6774C128.958 39.6774 130.786 38.6067 130.786 36.539C130.786 34.1205 128.829 33.6959 127.168 33.419C125.968 33.1974 124.897 33.1051 124.897 32.4405C124.897 31.8498 125.469 31.5728 126.208 31.5728C127.038 31.5728 127.611 31.8313 127.722 32.6805H130.491C130.343 30.8159 128.903 29.6528 126.226 29.6528C123.992 29.6528 122.146 30.6867 122.146 32.6805C122.146 34.8959 123.9 35.339 125.543 35.6159C126.798 35.8374 127.943 35.9298 127.943 36.779C127.943 37.3882 127.371 37.7205 126.466 37.7205C125.469 37.7205 124.842 37.259 124.731 36.3174H121.888C121.98 38.4036 123.715 39.6774 126.485 39.6774Z" fill="#6687A6"/>
<path d="M134.874 39.659C136.185 39.659 137.015 39.1421 137.698 38.219H137.754V39.3821H140.634V29.9298H137.625V35.2098C137.625 36.336 136.997 37.1113 135.963 37.1113C135.003 37.1113 134.542 36.539 134.542 35.5052V29.9298H131.551V36.1329C131.551 38.2375 132.695 39.659 134.874 39.659Z" fill="#6687A6"/>
<path d="M141.942 39.3821H144.952V34.0836C144.952 32.9574 145.505 32.1636 146.447 32.1636C147.352 32.1636 147.776 32.7544 147.776 33.7698V39.3821H150.785V34.0836C150.785 32.9574 151.321 32.1636 152.281 32.1636C153.185 32.1636 153.61 32.7544 153.61 33.7698V39.3821H156.619V33.2344C156.619 31.1113 155.549 29.6528 153.407 29.6528C152.189 29.6528 151.173 30.1698 150.435 31.3144H150.398C149.918 30.299 148.976 29.6528 147.739 29.6528C146.373 29.6528 145.469 30.299 144.878 31.2774H144.822V29.9298H141.942V39.3821Z" fill="#6687A6"/>
<path fill-rule="evenodd" clip-rule="evenodd" d="M42.661 17.5427C51.3239 17.5427 58.3466 24.5654 58.3466 33.2283C58.3466 41.8913 51.3239 48.914 42.661 48.914C33.998 48.914 26.9753 41.8913 26.9753 33.2283C26.9753 24.5654 33.998 17.5427 42.661 17.5427ZM57.7445 33.2283C57.7445 24.8979 50.9914 18.1447 42.661 18.1447C41.989 18.1447 41.3274 18.1887 40.6786 18.2738C41.0978 18.2372 41.5219 18.2185 41.9505 18.2185C49.9107 18.2185 56.3637 24.6715 56.3637 32.6316C56.3637 40.5917 49.9107 47.0447 41.9505 47.0447C34.4144 47.0447 28.2292 41.2609 27.5916 33.8901C27.938 41.9135 34.5522 48.3119 42.661 48.3119C50.9914 48.3119 57.7445 41.5588 57.7445 33.2283ZM55.7616 32.6316C55.7616 25.0039 49.5782 18.8205 41.9505 18.8205C41.3312 18.8205 40.7214 18.8613 40.1236 18.9403C40.4917 18.9093 40.8641 18.8935 41.2402 18.8935C48.4975 18.8935 54.3808 24.7768 54.3808 32.0341C54.3808 39.2915 48.4975 45.1747 41.2402 45.1747C34.3781 45.1747 28.7446 39.9149 28.1512 33.2071C28.4529 40.5679 34.5157 46.4427 41.9505 46.4427C49.5782 46.4427 55.7616 40.2592 55.7616 32.6316ZM41.2402 19.4955C48.165 19.4955 53.7788 25.1092 53.7788 32.0341C53.7788 38.9589 48.165 44.5726 41.2402 44.5726C34.4758 44.5726 28.9624 39.216 28.7106 32.5132C29.2542 38.5632 34.3383 43.3046 40.5298 43.3046C47.0839 43.3046 52.3972 37.9915 52.3972 31.4373C52.3972 24.8832 47.0839 19.57 40.5298 19.57C40.1908 19.57 39.855 19.5842 39.5232 19.6121C40.0845 19.5352 40.6577 19.4955 41.2402 19.4955ZM51.7951 31.4373C51.7951 25.2157 46.7515 20.172 40.5298 20.172C40.0042 20.172 39.4868 20.208 38.9804 20.2777C39.2569 20.2561 39.5365 20.245 39.8186 20.245C45.67 20.245 50.4135 24.9885 50.4135 30.8399C50.4135 36.6912 45.67 41.4346 39.8186 41.4346C34.3112 41.4346 29.7853 37.2324 29.2723 31.8594C29.4942 37.8855 34.4495 42.7026 40.5298 42.7026C46.7515 42.7026 51.7951 37.659 51.7951 31.4373ZM39.8186 20.8471C45.3375 20.8471 49.8114 25.321 49.8114 30.8399C49.8114 36.3587 45.3375 40.8326 39.8186 40.8326C34.4085 40.8326 30.0025 36.5332 29.831 31.1648C30.2942 35.8803 34.271 39.5646 39.1082 39.5646C44.2568 39.5646 48.4305 35.3909 48.4305 30.2423C48.4305 25.0938 44.2568 20.9201 39.1082 20.9201C38.8722 20.9201 38.6381 20.9288 38.4064 20.9461C38.8678 20.8808 39.3392 20.8471 39.8186 20.8471ZM47.8285 30.2423C47.8285 25.4262 43.9243 21.5221 39.1082 21.5221C38.6686 21.5221 38.2366 21.5546 37.8145 21.6174C38.0072 21.6036 38.2017 21.5966 38.3979 21.5966C42.8432 21.5966 46.4469 25.2002 46.4469 29.6455C46.4469 34.0909 42.8432 37.6945 38.3979 37.6945C34.2324 37.6945 30.8059 34.5303 30.391 30.4743C30.514 35.1832 34.3698 38.9626 39.1082 38.9626C43.9243 38.9626 47.8285 35.0584 47.8285 30.2423ZM38.3979 22.1986C42.5108 22.1986 45.8448 25.5327 45.8448 29.6455C45.8448 33.7585 42.5108 37.0926 38.3979 37.0926C34.3374 37.0926 31.0359 33.8428 30.9525 29.8022C31.3276 33.1899 34.1999 35.8246 37.6875 35.8246C41.4301 35.8246 44.464 32.7906 44.464 29.0481C44.464 25.3055 41.4301 22.2716 37.6875 22.2716C37.5444 22.2716 37.4023 22.276 37.2614 22.2848C37.6319 22.228 38.0115 22.1986 38.3979 22.1986ZM43.862 29.0481C43.862 25.638 41.0976 22.8736 37.6875 22.8736C37.3451 22.8736 37.0092 22.9015 36.6818 22.9551C36.7794 22.95 36.8775 22.9474 36.9764 22.9474C40.0161 22.9474 42.4803 25.4115 42.4803 28.4513C42.4803 31.4911 40.0161 33.9553 36.9764 33.9553C34.1656 33.9553 31.847 31.8484 31.5136 29.1278C31.5562 32.5012 34.3041 35.2225 37.6875 35.2225C41.0976 35.2225 43.862 32.4582 43.862 29.0481ZM36.9764 23.5494C39.6836 23.5494 41.8783 25.744 41.8783 28.4513C41.8783 31.1586 39.6836 33.3532 36.9764 33.3532C34.2691 33.3532 32.0744 31.1586 32.0744 28.4513C32.0744 28.4449 32.0744 28.4383 32.0744 28.4319C32.3563 30.4949 34.1255 32.0845 36.266 32.0845C38.6025 32.0845 40.4967 30.1904 40.4967 27.8539C40.4967 25.5172 38.6025 23.6231 36.266 23.6231C36.2132 23.6231 36.1605 23.6241 36.1082 23.626C36.3899 23.5757 36.6801 23.5494 36.9764 23.5494ZM39.8946 27.8539C39.8946 25.8498 38.2701 24.2251 36.266 24.2251C34.2619 24.2251 32.6373 25.8498 32.6373 27.8539C32.6373 29.8579 34.2619 31.4825 36.266 31.4825C38.2701 31.4825 39.8946 29.8579 39.8946 27.8539Z" fill="#6687A6"/>
</g>
<defs>
<clipPath id="clip0_16_3018">
<rect width="130" height="32.3077" fill="white" transform="translate(26.75 16.8027)"/>
</clipPath>
</defs>
</svg>
