<svg width="24" height="25" viewBox="0 0 24 25" fill="none" xmlns="http://www.w3.org/2000/svg">
<rect y="0.478516" width="24" height="24" rx="5" fill="white"/>
<path d="M11.875 10.4824C13.1055 10.4824 14.1211 11.498 14.1211 12.7285C14.1211 13.9785 13.1055 14.9746 11.875 14.9746C10.625 14.9746 9.62891 13.9785 9.62891 12.7285C9.62891 11.498 10.625 10.4824 11.875 10.4824ZM11.875 14.1934C12.6758 14.1934 13.3203 13.5488 13.3203 12.7285C13.3203 11.9277 12.6758 11.2832 11.875 11.2832C11.0547 11.2832 10.4102 11.9277 10.4102 12.7285C10.4102 13.5488 11.0742 14.1934 11.875 14.1934ZM14.7266 10.4043C14.7266 10.1113 14.4922 9.87695 14.1992 9.87695C13.9062 9.87695 13.6719 10.1113 13.6719 10.4043C13.6719 10.6973 13.9062 10.9316 14.1992 10.9316C14.4922 10.9316 14.7266 10.6973 14.7266 10.4043ZM16.2109 10.9316C16.25 11.6543 16.25 13.8223 16.2109 14.5449C16.1719 15.248 16.0156 15.8535 15.5078 16.3809C15 16.8887 14.375 17.0449 13.6719 17.084C12.9492 17.123 10.7812 17.123 10.0586 17.084C9.35547 17.0449 8.75 16.8887 8.22266 16.3809C7.71484 15.8535 7.55859 15.248 7.51953 14.5449C7.48047 13.8223 7.48047 11.6543 7.51953 10.9316C7.55859 10.2285 7.71484 9.60352 8.22266 9.0957C8.75 8.58789 9.35547 8.43164 10.0586 8.39258C10.7812 8.35352 12.9492 8.35352 13.6719 8.39258C14.375 8.43164 15 8.58789 15.5078 9.0957C16.0156 9.60352 16.1719 10.2285 16.2109 10.9316ZM15.2734 15.3066C15.5078 14.7402 15.4492 13.373 15.4492 12.7285C15.4492 12.1035 15.5078 10.7363 15.2734 10.1504C15.1172 9.7793 14.8242 9.4668 14.4531 9.33008C13.8672 9.0957 12.5 9.1543 11.875 9.1543C11.2305 9.1543 9.86328 9.0957 9.29688 9.33008C8.90625 9.48633 8.61328 9.7793 8.45703 10.1504C8.22266 10.7363 8.28125 12.1035 8.28125 12.7285C8.28125 13.373 8.22266 14.7402 8.45703 15.3066C8.61328 15.6973 8.90625 15.9902 9.29688 16.1465C9.86328 16.3809 11.2305 16.3223 11.875 16.3223C12.5 16.3223 13.8672 16.3809 14.4531 16.1465C14.8242 15.9902 15.1367 15.6973 15.2734 15.3066Z" fill="#212020"/>
</svg>
