<svg width="28" height="22" viewBox="0 0 28 22" fill="none" xmlns="http://www.w3.org/2000/svg">
<path d="M16.2344 6.875C16.2344 7.25 16 7.625 15.6719 7.76562C16.0938 7.90625 16.1875 8.1875 16.1875 8.60938V9.26562H15.3906C15.3906 8.5625 15.5781 8.09375 14.7344 8.09375H13.8906V9.26562H13.0938V6.03125H14.9219C15.5781 6.03125 16.2344 6.125 16.2344 6.875ZM14.8281 7.4375C15.1094 7.4375 15.3438 7.34375 15.3438 7.0625C15.3438 6.73438 15.1094 6.6875 14.875 6.6875H13.8906V7.4375H14.8281ZM14.0781 11.6094C14.7812 11.6094 15.3438 11.8438 15.3438 12.6875C15.3438 14 13.9375 13.7656 13.0469 13.7656V14.8438H11.5469L10.5625 13.7656L9.57812 14.8438H6.53125V11.6094H9.625L10.6094 12.6875L11.5938 11.6094H14.0781ZM9.20312 14.1875L10.0938 13.25L9.25 12.2656H7.28125V12.875H8.96875V13.5312H7.28125V14.1875H9.20312ZM12.2969 14.5625V11.9375L11.0781 13.25L12.2969 14.5625ZM14.0312 13.1094C14.3125 13.1094 14.5469 12.9688 14.5469 12.6875C14.5469 12.4062 14.3125 12.2656 14.0781 12.2656H13.0469V13.1094H14.0312ZM12.5781 6.6875H10.75V7.29688H12.5312V7.95312H10.75V8.60938H12.5781V9.26562H9.95312V6.03125H12.5781V6.6875ZM28 11H27.9531H28ZM18.8594 12.5C18.8594 12.8281 18.6719 13.2031 18.2969 13.3438C18.7188 13.4844 18.8125 13.8125 18.8125 14.2344V14.8438H18.0156V14.3281C18.0156 13.7656 17.875 13.6719 17.3594 13.6719H16.5156V14.8438H15.7188V11.6094H17.5938C18.2031 11.6094 18.8594 11.7031 18.8594 12.5ZM17.5 13.0156C17.7344 13.0156 18.0156 12.9688 18.0156 12.6406C18.0156 12.3125 17.7344 12.2656 17.5 12.2656H16.5156V13.0156H17.5ZM9.39062 9.26562H8.59375V6.73438L7.46875 9.26562H6.8125L5.6875 6.73438V9.26562H4.09375L3.76562 8.5625H2.17188L1.84375 9.26562H1.04688L2.40625 6.03125H3.57812L4.89062 9.07812V6.03125H6.15625L7.1875 8.23438L8.07812 6.03125H9.39062V9.26562ZM2.45312 7.85938H3.48438L2.96875 6.59375L2.45312 7.85938ZM24.8125 15.3125C26.4531 15.3125 27.3906 15.4062 28 15.0312V19.25C28 20.5156 26.9688 21.5 25.75 21.5H3.25C1.98438 21.5 1 20.5156 1 19.25V9.73438H2.21875C2.40625 9.26562 2.3125 9.45312 2.54688 8.98438H3.4375C3.625 9.45312 3.53125 9.26562 3.71875 9.73438H6.20312V9.17188C6.29688 9.40625 6.25 9.3125 6.4375 9.73438H7.84375C7.9375 9.45312 7.9375 9.45312 8.07812 9.17188V9.73438H14.4062V8.5625C14.7344 8.5625 14.7812 8.5625 14.875 8.5625C14.875 8.5625 14.875 9.07812 14.875 9.73438H18.0156V9.3125C18.3438 9.59375 18.8125 9.73438 19.375 9.73438H20.6406C20.8281 9.26562 20.7344 9.45312 20.9688 8.98438H21.8594C22.1406 9.6875 21.8594 9.03125 22.1406 9.73438H24.625V8.70312C25.1875 9.59375 25 9.3125 25.2344 9.73438H27.2031V5.42188H25.3281V6.26562C24.7656 5.32812 25.0469 5.79688 24.8125 5.42188H22.75V6.35938C22.4688 5.70312 22.5625 5.84375 22.375 5.42188H20.8281C20.8281 5.42188 20.7344 5.42188 20.7344 5.375H19.4219C18.8125 5.375 18.3438 5.5625 18.0156 5.84375V5.375H16.1406V5.65625C15.625 5.375 15.1562 5.42188 13.0938 5.375H12.5781H7.75C7.60938 5.65625 7.42188 6.17188 7.14062 6.78125C7 6.5 6.625 5.70312 6.48438 5.375H4.32812V6.35938C4 5.5625 4.09375 5.84375 3.90625 5.375H2.03125C1.89062 5.75 1.42188 6.875 0.953125 7.90625V2.75C0.953125 1.53125 1.98438 0.5 3.20312 0.5H25.7031C26.9688 0.5 27.9531 1.53125 27.9531 2.75V11C26.2188 11 25.8906 10.9531 25.4219 11.2344V11C23.3125 11 22.9375 10.9062 22.375 11.2344V11H18.7188V11.2344C18.2031 10.9062 17.7344 11 15.1562 11V11.2344C14.875 11.0938 14.5 11 14.0312 11H11.3125C11.125 11.1875 10.7031 11.6562 10.5625 11.7969C10 11.1406 10.0938 11.2344 9.85938 11H5.96875V15.3125H9.8125C9.95312 15.1719 10.4219 14.6562 10.5625 14.5156C11.125 15.1719 11.0312 15.0312 11.2656 15.3125H13.5625C13.5625 14.6094 13.5625 14.9375 13.5625 14.2344C14.125 14.2344 14.6875 14.2344 15.1562 13.9531C15.1562 14.6094 15.1562 14.75 15.1562 15.3125H17.0312C17.0312 14.4688 17.0312 14.9844 17.0312 14.1406C17.3125 14.1406 17.4062 14.1406 17.4531 14.1406C17.5 14.1875 17.4531 14.1406 17.4531 15.3125C24.625 15.3125 24.2969 15.3594 24.8125 15.125V15.3125ZM26.5 12.3125C26.3125 12.3125 26.0781 12.3125 26.0781 12.5938C26.0781 13.1562 27.4375 12.5938 27.9531 13.25V14.4219C27.7188 14.7969 27.25 14.8438 26.875 14.8438H25.375V14.1875H26.875C27.0625 14.1875 27.2969 14.0938 27.2969 13.8594C27.2969 13.2031 25.2812 14.1406 25.2812 12.5938C25.2812 11.9375 25.7969 11.6094 26.4062 11.6094H27.9531V12.3125H26.5ZM23.8281 14.1406C24.0625 14.1406 24.25 14.0938 24.25 13.8594C24.25 13.1562 22.2812 14.1406 22.2812 12.5938C22.2812 11.9375 22.75 11.6094 23.3594 11.6094H24.9062V12.3125H23.5C23.3125 12.3125 23.0781 12.3125 23.0781 12.5938C23.0781 13.2969 25.0938 12.2656 25.0938 13.8125C25.0938 14.6094 24.5312 14.8438 23.8281 14.8438H22.3281V14.1406H23.8281ZM21.8594 12.2656H20.0781V12.875H21.8594V13.5312H20.0781V14.1875H21.8594V14.8438H19.2812V11.6094H21.8594V12.2656ZM19.2344 7.20312C19.2344 7.20312 19.3281 7.15625 19.5625 7.15625C19.6094 7.15625 19.6562 7.15625 19.7031 7.15625L19.375 7.95312C19.2812 7.95312 19.2344 7.95312 19.2344 7.95312C19.1875 7.95312 19.1875 7.85938 19.1875 7.57812C19.1875 7.29688 19.2344 7.20312 19.2344 7.20312ZM19.4219 6.03125H20.1719V6.73438C19.375 6.6875 18.625 6.54688 18.625 7.625C18.625 8.1875 18.7656 8.5625 19.375 8.5625H19.75L20.8281 6.03125H22L23.3125 9.07812V6.03125H24.4844L25.8438 8.28125V6.03125H26.6406V9.26562H25.5625L24.0625 6.82812V9.26562H22.5156L22.1875 8.5625H20.5938L20.2656 9.26562H19.375C18.2969 9.26562 17.8281 8.70312 17.8281 7.67188C17.8281 6.59375 18.3438 6.03125 19.4219 6.03125ZM21.3906 6.59375L20.875 7.85938H21.9062L21.3906 6.59375ZM16.6562 6.03125H17.4531V9.26562H16.6562V6.03125Z" fill="white"/>
</svg>
