<svg width="27" height="22" viewBox="0 0 27 22" fill="none" xmlns="http://www.w3.org/2000/svg">
<path d="M24.375 8.23438C24.375 8.60938 24.0938 8.79688 23.625 8.79688H23.3906V7.625H23.625C24.0938 7.625 24.375 7.85938 24.375 8.23438ZM24.75 0.5C25.9688 0.5 27 1.53125 27 2.75V19.25C27 20.5156 25.9688 21.5 24.75 21.5H2.25C0.984375 21.5 0 20.5156 0 19.25V2.75C0 1.53125 0.984375 0.5 2.25 0.5H24.75ZM22.6406 7.01562V10.8594H23.3906V9.35938H23.5312L24.5625 10.8594H25.4531L24.2812 9.26562C24.8438 9.125 25.125 8.75 25.125 8.1875C25.125 6.82812 23.7188 7.01562 22.6406 7.01562ZM20.0625 7.01562V10.8594H22.1719V10.25H20.8125V9.17188H22.125V8.5625H20.8125V7.67188H22.1719V7.01562H20.0625ZM16.8281 7.01562H15.9844L17.625 11H18.0469L19.6875 7.01562H18.8906L17.8594 9.64062L16.8281 7.01562ZM14.2031 6.875C13.0312 6.875 12.0938 7.8125 12.0938 8.98438C12.0938 10.1562 13.0312 11.0938 14.2031 11.0938C15.375 11.0938 16.3125 10.1562 16.3125 8.98438C16.3125 7.8125 15.375 6.875 14.2031 6.875ZM11.9062 7.20312C10.4531 6.5 8.90625 7.48438 8.90625 8.98438C8.90625 10.4844 10.5 11.4219 11.9062 10.7656V9.875C10.9688 10.7656 9.70312 10.1562 9.70312 8.98438C9.70312 7.85938 10.9688 7.10938 11.9062 8.09375V7.20312ZM7.3125 10.2969C6.98438 10.2969 6.70312 10.1094 6.51562 9.78125L6.04688 10.25C6.84375 11.4688 8.67188 11.0938 8.67188 9.73438C8.67188 9.125 8.4375 8.84375 7.59375 8.51562C7.125 8.375 6.98438 8.23438 6.98438 8.04688C6.98438 7.625 7.6875 7.39062 8.15625 7.90625L8.57812 7.39062C7.6875 6.59375 6.23438 7.01562 6.23438 8.09375C6.23438 8.60938 6.46875 8.89062 7.17188 9.125C8.39062 9.59375 7.875 10.2969 7.3125 10.2969ZM2.57812 10.8594C4.03125 10.8594 4.64062 9.82812 4.64062 8.98438C4.64062 7.8125 3.79688 7.01562 2.57812 7.01562H1.5V10.8594H2.57812ZM5.71875 10.8594V7.01562H4.96875V10.8594H5.71875ZM25.5 19.2969V12.5C23.9062 13.4844 14.8594 18.3594 6 20H24.7969C25.1719 20 25.5 19.7188 25.5 19.2969ZM3.46875 8C3.70312 8.23438 3.89062 8.60938 3.89062 8.98438C3.89062 9.3125 3.70312 9.6875 3.46875 9.92188C3.23438 10.1562 2.90625 10.25 2.4375 10.25H2.25V7.67188H2.4375C2.90625 7.67188 3.1875 7.76562 3.46875 8Z" fill="white"/>
</svg>
