<svg width="27" height="22" viewBox="0 0 27 22" fill="none" xmlns="http://www.w3.org/2000/svg">
<path d="M20.2031 10.4844V8.9375C22.125 8.9375 22.0312 8.98438 22.0312 8.98438C22.3594 9.03125 22.6406 9.3125 22.6406 9.73438C22.6406 10.1094 22.3594 10.3906 22.0312 10.4375C21.9375 10.4844 21.8438 10.4844 20.2031 10.4844ZM22.2188 11.4219C22.0781 11.375 22.0781 11.375 20.2031 11.375V13.0156C22.0781 13.0156 22.0781 13.0625 22.2188 13.0156C22.5469 12.9219 22.8281 12.6406 22.8281 12.2188C22.8281 11.7969 22.5469 11.4688 22.2188 11.4219ZM27 2.75V19.25C27 20.5156 25.9688 21.5 24.75 21.5H2.25C0.984375 21.5 0 20.5156 0 19.25V2.75C0 1.53125 0.984375 0.5 2.25 0.5H24.75C25.9688 0.5 27 1.53125 27 2.75ZM8.53125 8.04688H5.85938C5.85938 11.1875 6.32812 13.1562 4.17188 13.1562C3.23438 13.1562 2.34375 12.9219 1.5 12.5V13.8125C2.90625 14.1875 4.6875 14.1875 4.6875 14.1875C9.23438 14.1875 8.53125 11.9375 8.53125 8.04688ZM16.875 8.23438C13.9219 7.48438 9.14062 7.53125 9.14062 11.0469C9.14062 14.6562 14.2031 14.4688 16.875 13.8125V12.4531C14.625 13.625 11.8594 13.4844 11.8594 11C11.8594 8.51562 14.625 8.42188 16.875 9.54688V8.23438ZM25.5 12.4531C25.5 11.5625 24.7031 11 23.7188 10.9531V10.9062C24.6094 10.7656 25.125 10.2031 25.125 9.5C25.125 8.60938 24.375 8.09375 23.3906 8.04688C23.3906 8.04688 23.6719 8.04688 17.7656 8.04688V14H23.4844C24.6562 14 25.5 13.3906 25.5 12.4531Z" fill="white"/>
</svg>
