<svg width="27" height="22" viewBox="0 0 27 22" fill="none" xmlns="http://www.w3.org/2000/svg">
<path d="M8.71875 11.1406C8.71875 11.7031 8.25 12.125 7.6875 12.125C7.26562 12.125 6.9375 11.8906 6.9375 11.4219C6.9375 10.8594 7.35938 10.3906 7.96875 10.3906C8.39062 10.3906 8.71875 10.6719 8.71875 11.1406ZM3.75 8.84375H3.51562C3.46875 8.84375 3.375 8.89062 3.375 8.98438L3.1875 10.25L3.5625 10.2031C4.07812 10.2031 4.5 10.1562 4.59375 9.54688C4.6875 8.9375 4.26562 8.84375 3.75 8.84375ZM17.0625 8.84375H16.875C16.7812 8.84375 16.7344 8.89062 16.6875 8.98438L16.5 10.25L16.875 10.2031C17.4844 10.2031 17.9062 10.0625 17.9062 9.35938C17.9062 8.89062 17.4844 8.84375 17.0625 8.84375ZM27 2.75V19.25C27 20.5156 25.9688 21.5 24.75 21.5H2.25C0.984375 21.5 0 20.5156 0 19.25V2.75C0 1.53125 0.984375 0.5 2.25 0.5H24.75C25.9688 0.5 27 1.53125 27 2.75ZM6 9.125C6 8.14062 5.25 7.8125 4.35938 7.8125H2.48438C2.39062 7.8125 2.25 7.90625 2.25 8.04688L1.5 12.8281C1.45312 12.9219 1.54688 13.0156 1.64062 13.0156H2.53125C2.625 13.0156 2.76562 12.875 2.76562 12.7344L3 11.4688C3.04688 11.1406 3.60938 11.2812 3.84375 11.2812C5.15625 11.2812 6 10.4844 6 9.125ZM9.9375 9.54688H9.04688C8.85938 9.54688 8.85938 9.78125 8.85938 9.92188C8.57812 9.5 8.20312 9.45312 7.73438 9.45312C6.60938 9.45312 5.71875 10.4375 5.71875 11.5625C5.71875 12.5 6.28125 13.0625 7.21875 13.0625C7.64062 13.0625 8.15625 12.8281 8.4375 12.5C8.4375 12.5938 8.39062 12.7344 8.39062 12.8281C8.39062 12.9219 8.4375 13.0156 8.53125 13.0156H9.375C9.46875 13.0156 9.60938 12.875 9.60938 12.7344L10.0781 9.73438C10.125 9.64062 10.0312 9.54688 9.9375 9.54688ZM11.8594 14.1406L14.8125 9.78125C14.8594 9.73438 14.8594 9.73438 14.8594 9.6875C14.8594 9.64062 14.7656 9.54688 14.7188 9.54688H13.7812C13.7344 9.54688 13.6406 9.59375 13.5938 9.64062L12.3281 11.4688L11.8125 9.73438C11.8125 9.64062 11.6719 9.54688 11.5781 9.54688H10.6875C10.5938 9.54688 10.5469 9.64062 10.5469 9.6875C10.5469 9.73438 11.4375 12.3594 11.5312 12.5938C11.3906 12.7812 10.5938 13.9531 10.5938 14.0938C10.5938 14.1875 10.6406 14.2344 10.7344 14.2344H11.625C11.7188 14.2344 11.8125 14.1875 11.8594 14.1406ZM19.3125 9.125C19.3125 8.14062 18.5625 7.8125 17.6719 7.8125H15.7969C15.7031 7.8125 15.5625 7.90625 15.5625 8.04688L14.8125 12.8281C14.8125 12.9219 14.8594 13.0156 14.9531 13.0156H15.8906C15.9844 13.0156 16.0781 12.9219 16.0781 12.8281L16.3125 11.4688C16.3594 11.1406 16.9219 11.2812 17.1562 11.2812C18.4688 11.2812 19.3125 10.4844 19.3125 9.125ZM23.25 9.54688H22.3594C22.1719 9.54688 22.1719 9.78125 22.1719 9.92188C21.8906 9.5 21.5156 9.45312 21.0469 9.45312C19.9219 9.45312 19.0312 10.4375 19.0312 11.5625C19.0312 12.5 19.5938 13.0625 20.5312 13.0625C20.9531 13.0625 21.4688 12.8281 21.75 12.5C21.75 12.5938 21.7031 12.7344 21.7031 12.8281C21.7031 12.9219 21.75 13.0156 21.8438 13.0156H22.6875C22.7812 13.0156 22.9219 12.875 22.9219 12.7344L23.3906 9.73438C23.4375 9.64062 23.3438 9.54688 23.25 9.54688ZM25.5 7.95312C25.5 7.85938 25.4062 7.8125 25.3125 7.8125H24.4688C24.375 7.8125 24.3281 7.85938 24.3281 7.95312L23.5312 12.8281C23.5312 12.9219 23.625 13.0156 23.7188 13.0156H24.4688C24.6094 13.0156 24.7031 12.875 24.7031 12.7344L25.5 8V7.95312ZM21.2812 10.3906C20.6719 10.3906 20.25 10.8594 20.25 11.4219C20.25 11.8906 20.5781 12.125 21 12.125C21.5625 12.125 22.0312 11.7031 22.0312 11.1406C22.0312 10.6719 21.7031 10.3906 21.2812 10.3906Z" fill="white"/>
</svg>
