<svg width="27" height="22" viewBox="0 0 27 22" fill="none" xmlns="http://www.w3.org/2000/svg">
<path d="M14.1562 9.26562C14.1562 10.0625 13.6406 10.5312 12.7969 10.5312H11.625V8H12.7969C13.6406 8 14.1562 8.46875 14.1562 9.26562ZM16.3594 12.1719C16.3594 12.5938 16.6875 12.8281 17.25 12.8281C17.9062 12.8281 18.4219 12.4062 18.4219 11.7969V11.4688L17.2969 11.5156C16.6875 11.5625 16.3594 11.7969 16.3594 12.1719ZM27 2.70312V19.2031C27 20.4688 25.9688 21.4531 24.75 21.4531H2.25C0.984375 21.4531 0 20.4688 0 19.2031V2.70312C0 1.48438 0.984375 0.453125 2.25 0.453125H24.75C25.9688 0.453125 27 1.48438 27 2.70312ZM5.95312 8.28125C6.375 8.28125 6.75 8.04688 6.98438 7.76562C7.26562 7.48438 7.40625 7.0625 7.35938 6.6875C7.03125 6.6875 6.60938 6.875 6.32812 7.20312C6.09375 7.4375 5.90625 7.85938 5.95312 8.28125ZM8.8125 11.75C8.8125 11.75 7.875 11.4219 7.875 10.3438C7.875 9.45312 8.57812 9.03125 8.625 9.03125C8.20312 8.42188 7.59375 8.375 7.35938 8.32812C6.79688 8.32812 6.28125 8.65625 6.04688 8.65625C5.76562 8.65625 5.34375 8.375 4.875 8.375C4.3125 8.375 3.75 8.70312 3.46875 9.21875C2.85938 10.2969 3.28125 11.8438 3.89062 12.7344C4.17188 13.1562 4.54688 13.625 5.01562 13.5781C5.4375 13.5781 5.625 13.2969 6.14062 13.2969C6.65625 13.2969 6.79688 13.5781 7.26562 13.5781C7.73438 13.5781 8.0625 13.1562 8.34375 12.7344C8.67188 12.2656 8.8125 11.7969 8.8125 11.75ZM15.1406 9.26562C15.1406 8 14.2969 7.15625 13.0312 7.15625H10.6406V13.5312H11.625V11.375H13.0312C14.2969 11.375 15.1406 10.4844 15.1406 9.26562ZM19.3594 10.3438C19.3594 9.45312 18.6562 8.84375 17.4844 8.84375C16.4531 8.84375 15.6562 9.45312 15.6562 10.2969H16.5469C16.5938 9.875 16.9688 9.64062 17.4844 9.64062C18.0938 9.64062 18.4219 9.92188 18.4219 10.4375V10.7656L17.2031 10.8594C16.0312 10.9062 15.4219 11.4219 15.4219 12.2188C15.4219 13.0625 16.0312 13.5781 16.9688 13.5781C17.5781 13.5781 18.1875 13.2969 18.4219 12.7812H18.4688V13.5312H19.3594V10.3438ZM24.1875 8.89062H23.1562L21.9844 12.6875L20.8125 8.89062H19.7812L21.4219 13.5781L21.375 13.8594C21.1875 14.3281 20.9531 14.5156 20.5312 14.5156C20.4375 14.5156 20.2969 14.5156 20.2031 14.5156V15.2656C20.2969 15.2656 20.5312 15.2656 20.625 15.2656C21.5625 15.2656 22.0312 14.9375 22.4062 13.8125L24.1875 8.89062Z" fill="white"/>
</svg>
