<svg width="27" height="22" viewBox="0 0 27 22" fill="none" xmlns="http://www.w3.org/2000/svg">
<path d="M5.8125 8.46875C5.8125 7.90625 5.8125 7.39062 5.8125 6.82812V5.1875C5.8125 5.09375 5.85938 5.09375 5.90625 5.04688C6.42188 4.67188 7.03125 4.48438 7.6875 4.53125C8.25 4.57812 8.76562 4.85938 9 5.5625C9.14062 5.9375 9.1875 6.40625 9.1875 6.82812C9.1875 7.25 9.14062 7.67188 9.04688 8.04688C8.76562 8.89062 8.15625 9.21875 7.35938 9.17188C6.79688 9.125 6.32812 8.9375 5.90625 8.60938C5.85938 8.5625 5.8125 8.51562 5.8125 8.46875ZM13.0781 9.17188C13.3125 9.26562 13.5 9.26562 13.7344 9.21875C14.2969 9.17188 14.7656 8.98438 15.2344 8.65625C15.2344 8.60938 15.2812 8.60938 15.2812 8.51562C15.2812 8.32812 15.2812 8.14062 15.2812 8C15.2812 7.8125 15.2812 7.625 15.2812 7.4375C15.2812 7.34375 15.2344 7.34375 15.1875 7.29688C14.8594 7.25 14.5312 7.20312 14.2031 7.15625C13.875 7.15625 13.5469 7.15625 13.2188 7.25C12.9375 7.39062 12.7031 7.57812 12.6094 7.85938C12.5156 8.14062 12.5156 8.375 12.6094 8.65625C12.6562 8.89062 12.8438 9.07812 13.0781 9.17188ZM27 2.75V19.25C27 20.5156 25.9688 21.5 24.75 21.5H2.25C0.984375 21.5 0 20.5156 0 19.25V2.75C0 1.53125 0.984375 0.5 2.25 0.5H24.75C25.9688 0.5 27 1.53125 27 2.75ZM17.25 3.875C17.25 3.96875 17.2969 4.0625 17.3438 4.10938C18.0938 6.03125 18.8906 7.95312 19.6406 9.82812C19.7344 10.0156 19.7344 10.1562 19.6406 10.2969C19.5469 10.5781 19.4062 10.9062 19.3125 11.1875C19.1719 11.4219 18.9844 11.6094 18.7031 11.7031C18.5156 11.75 18.2812 11.75 18.0938 11.75C18 11.75 17.9062 11.7031 17.8125 11.7031C17.6719 11.7031 17.5781 11.75 17.5781 11.8906C17.5781 12.0312 17.5781 12.1719 17.5781 12.3125C17.5781 12.5 17.6719 12.5938 17.9062 12.6406C18.0938 12.6875 18.3281 12.7344 18.5625 12.7344C19.2188 12.7344 19.7344 12.4531 20.1094 11.8906C20.25 11.6562 20.3438 11.4219 20.4844 11.1406C21.375 8.79688 22.3125 6.45312 23.25 4.10938C23.25 4.01562 23.2969 3.96875 23.2969 3.875C23.2969 3.78125 23.25 3.73438 23.1562 3.73438C22.875 3.73438 22.6406 3.73438 22.3594 3.73438C22.2188 3.73438 22.125 3.78125 22.0781 3.92188C22.0312 3.96875 22.0312 4.01562 22.0312 4.0625L20.625 8C20.5312 8.28125 20.4375 8.5625 20.3438 8.89062C20.3438 8.84375 20.2969 8.79688 20.2969 8.79688C19.7812 7.39062 19.3125 5.98438 18.7969 4.57812C18.7031 4.34375 18.6094 4.10938 18.5156 3.92188C18.5156 3.78125 18.4219 3.73438 18.2812 3.73438C18 3.73438 17.6719 3.73438 17.3906 3.73438C17.2969 3.73438 17.25 3.78125 17.25 3.875ZM11.3438 8.65625C11.4375 9.21875 11.7188 9.64062 12.1875 9.92188C12.6562 10.2031 13.1719 10.2031 13.6875 10.1562C14.25 10.0625 14.8125 9.78125 15.2344 9.40625C15.2812 9.40625 15.2812 9.40625 15.3281 9.35938C15.3281 9.5 15.375 9.64062 15.375 9.78125C15.4219 9.92188 15.4688 10.0156 15.6094 10.0156C15.7969 10.0156 16.0312 10.0156 16.2656 10.0156C16.3594 10.0156 16.4062 9.92188 16.4531 9.82812C16.4531 9.78125 16.4531 9.73438 16.4531 9.73438V5.5625C16.4531 5.375 16.4062 5.23438 16.4062 5.04688C16.3125 4.53125 16.125 4.10938 15.6562 3.875C15.375 3.6875 15.0938 3.64062 14.8125 3.59375C14.6719 3.54688 14.5312 3.54688 14.3906 3.54688H13.9219C13.875 3.54688 13.8281 3.54688 13.7812 3.54688C13.4062 3.54688 13.0312 3.59375 12.6562 3.6875C12.4219 3.78125 12.1875 3.875 11.9531 3.92188C11.8125 3.96875 11.7656 4.0625 11.7656 4.25C11.7656 4.39062 11.7656 4.48438 11.7656 4.625C11.7656 4.8125 11.8125 4.85938 12 4.8125C12.3281 4.71875 12.6094 4.67188 12.9375 4.57812C13.4062 4.48438 13.9219 4.48438 14.3906 4.53125C14.6719 4.57812 14.9062 4.67188 15.0469 4.85938C15.1875 5.04688 15.2344 5.28125 15.2812 5.51562C15.2812 5.84375 15.2812 6.17188 15.2812 6.5C15.2812 6.5 15.2812 6.5 15.2812 6.54688C15.2344 6.54688 15.2344 6.54688 15.2344 6.54688C14.8125 6.45312 14.3906 6.35938 13.9688 6.35938C13.5 6.3125 13.0781 6.35938 12.6562 6.5C12.1406 6.6875 11.7188 6.96875 11.4844 7.48438C11.2969 7.85938 11.2969 8.28125 11.3438 8.65625ZM4.59375 4.01562V12.2656C4.59375 12.2656 4.59375 12.3125 4.59375 12.3594C4.64062 12.5 4.6875 12.5469 4.78125 12.5469C5.0625 12.5469 5.34375 12.5469 5.625 12.5469C5.76562 12.5469 5.8125 12.5 5.8125 12.3594C5.8125 12.3125 5.8125 12.3125 5.8125 12.2656V9.40625C5.85938 9.45312 5.90625 9.45312 5.90625 9.5C6.60938 10.0625 7.40625 10.25 8.29688 10.1094C9.09375 9.92188 9.65625 9.45312 10.0312 8.70312C10.3125 8.1875 10.4062 7.57812 10.4531 6.96875C10.4531 6.3125 10.4062 5.65625 10.125 5.04688C9.79688 4.25 9.23438 3.73438 8.39062 3.59375C8.29688 3.54688 8.15625 3.54688 8.01562 3.54688H7.6875C7.64062 3.54688 7.59375 3.54688 7.5 3.54688C6.98438 3.59375 6.46875 3.82812 6.04688 4.15625C5.95312 4.20312 5.85938 4.29688 5.76562 4.34375L5.71875 4.29688C5.71875 4.20312 5.71875 4.0625 5.67188 3.96875C5.67188 3.78125 5.57812 3.73438 5.39062 3.73438H4.92188C4.64062 3.6875 4.59375 3.78125 4.59375 4.01562ZM23.1094 14.8906C22.9688 14.8906 22.875 14.8906 22.7812 14.9375C20.7188 15.8281 18.5625 16.3906 16.3594 16.625C15.6562 16.7188 15 16.7656 14.2969 16.7656C13.0312 16.8125 11.8125 16.7656 10.5469 16.5781C9.75 16.4844 8.90625 16.2969 8.0625 16.1094C6.32812 15.6875 4.6875 15.125 3.09375 14.2812C2.67188 14.0938 2.25 13.8594 1.875 13.625C1.6875 13.5312 1.54688 13.5781 1.45312 13.7656V13.8125C1.54688 13.9062 1.59375 14 1.64062 14.0469C3.32812 15.5469 5.25 16.7188 7.35938 17.4688C8.39062 17.8438 9.46875 18.125 10.5 18.2656C11.1562 18.4062 11.8125 18.4531 12.5156 18.5C12.6562 18.5 12.7969 18.5 12.9375 18.5C12.9375 18.5 12.9844 18.5469 13.0312 18.5469H13.8281C13.875 18.5469 13.9219 18.5 13.9688 18.5C14.625 18.5 15.3281 18.4531 16.0312 18.3125C17.0625 18.1719 18.0469 17.9375 18.9844 17.6562C20.3906 17.1875 21.7031 16.5781 22.875 15.7812C23.0156 15.6875 23.1562 15.5938 23.25 15.4531C23.4844 15.2656 23.3906 14.9844 23.1094 14.8906ZM25.5 13.625C25.4531 13.4375 25.3125 13.3438 25.125 13.2969C24.8438 13.2031 24.5625 13.1562 24.2812 13.1094C23.7656 13.1094 23.25 13.1094 22.7812 13.2031C22.2188 13.2969 21.6562 13.4844 21.1875 13.8125C21.1406 13.8594 21.0938 13.9062 21.0469 13.9531C21 14 21 14.0469 21 14.1406C21.0469 14.1875 21.0938 14.1875 21.1406 14.1875C21.1875 14.1875 21.2344 14.1875 21.2344 14.1875L22.1719 14.0938C22.5938 14.0469 23.0625 14 23.5312 14.0469C23.7188 14.0469 23.9062 14.0938 24.0938 14.1406C24.2812 14.1875 24.375 14.375 24.375 14.5625C24.375 14.8906 24.3281 15.1719 24.2344 15.4531C24.0938 16.0625 23.8594 16.6719 23.625 17.2344C23.5781 17.2812 23.5781 17.3281 23.5781 17.375C23.5781 17.4688 23.625 17.5625 23.7188 17.5156C23.8125 17.5156 23.8594 17.4688 23.9062 17.4219C24.0938 17.2812 24.2812 17.0938 24.4219 16.9062C24.9375 16.25 25.2188 15.5 25.4062 14.7031C25.4062 14.5625 25.4531 14.4219 25.4531 14.2812C25.5 14.0938 25.5 13.8594 25.5 13.625Z" fill="white"/>
</svg>
