<svg width="27" height="22" viewBox="0 0 27 22" fill="none" xmlns="http://www.w3.org/2000/svg">
<path d="M22.5938 18.2656C22.5938 18.5938 22.4062 18.7812 22.0781 18.7812C21.75 18.7812 21.5625 18.5469 21.5625 18.2656C21.5625 17.9375 21.75 17.7031 22.0781 17.7031C22.4062 17.7031 22.5938 17.9375 22.5938 18.2656ZM8.0625 17.7031C7.73438 17.7031 7.5 17.9375 7.5 18.2656C7.5 18.5469 7.73438 18.7812 8.0625 18.7812C8.34375 18.7812 8.57812 18.5938 8.57812 18.2656C8.53125 17.9375 8.34375 17.7031 8.0625 17.7031ZM13.5469 17.7031C13.3125 17.7031 13.125 17.8438 13.125 18.0781H14.0156C13.9688 17.8438 13.7812 17.7031 13.5469 17.7031ZM18.6094 17.7031C18.2812 17.7031 18.0938 17.9375 18.0938 18.2656C18.0938 18.5469 18.2812 18.7812 18.6094 18.7812C18.9375 18.7812 19.125 18.5938 19.125 18.2656C19.125 17.9375 18.9375 17.7031 18.6094 17.7031ZM23.5781 18.9219V18.9688C23.5781 19.0156 23.5781 19.0156 23.5781 19.0156C23.5781 19.0625 23.5781 19.0625 23.5312 19.0625C23.5312 19.0625 23.5312 19.1094 23.4844 19.1094C23.4844 19.1094 23.4844 19.1094 23.4375 19.1094C23.4375 19.1094 23.4375 19.1094 23.3906 19.1094C23.3906 19.1094 23.3906 19.0625 23.3438 19.0625C23.3438 19.0625 23.3438 19.0625 23.3438 19.0156C23.2969 19.0156 23.2969 19.0156 23.2969 18.9688C23.2969 18.9688 23.2969 18.9219 23.3438 18.9219V18.875C23.3906 18.875 23.3906 18.875 23.3906 18.875C23.4375 18.8281 23.4375 18.8281 23.4375 18.8281C23.4844 18.8281 23.4844 18.8281 23.4844 18.875C23.5312 18.875 23.5312 18.875 23.5312 18.875C23.5781 18.875 23.5781 18.9219 23.5781 18.9219ZM23.4844 19.0156V18.9688C23.5312 18.9688 23.5312 18.9688 23.5312 18.9219C23.5312 18.9219 23.5312 18.9219 23.4844 18.9219C23.4844 18.9219 23.4844 18.875 23.4375 18.875H23.3906V19.0625H23.4375V18.9688L23.4844 19.0625H23.5312L23.4844 19.0156ZM27 2.79688V19.2969C27 20.5625 25.9688 21.5469 24.75 21.5469H2.25C0.984375 21.5469 0 20.5625 0 19.2969V2.79688C0 1.57812 0.984375 0.546875 2.25 0.546875H24.75C25.9688 0.546875 27 1.57812 27 2.79688ZM3 9.35938C3 12.9688 5.90625 15.875 9.46875 15.875C10.7344 15.875 12 15.4531 13.0781 14.75C9.65625 11.9844 9.65625 6.73438 13.0781 3.96875C12 3.26562 10.7344 2.89062 9.46875 2.89062C5.90625 2.89062 3 5.79688 3 9.35938ZM13.5 14.4688C16.7812 11.8906 16.7812 6.875 13.5 4.25C10.1719 6.875 10.1719 11.8906 13.5 14.4688ZM6.79688 18.0312C6.79688 17.6094 6.5625 17.375 6.14062 17.3281C5.90625 17.3281 5.67188 17.4219 5.53125 17.6562C5.39062 17.4688 5.20312 17.3281 4.96875 17.3281C4.78125 17.3281 4.59375 17.4219 4.45312 17.6094V17.375H4.07812V19.1094H4.45312C4.45312 18.2188 4.3125 17.7031 4.875 17.7031C5.34375 17.7031 5.25 18.1719 5.25 19.1094H5.625C5.625 18.2656 5.53125 17.7031 6.04688 17.7031C6.51562 17.7031 6.42188 18.1719 6.42188 19.1094H6.79688V18.0312ZM8.90625 17.375H8.53125V17.6094C8.4375 17.4688 8.25 17.3281 8.01562 17.3281C7.5 17.3281 7.125 17.75 7.125 18.2656C7.125 18.7812 7.5 19.1562 8.01562 19.1562C8.25 19.1562 8.4375 19.0625 8.53125 18.9219V19.1094H8.90625V17.375ZM10.8281 18.5938C10.8281 17.8906 9.75 18.2188 9.75 17.8906C9.75 17.6094 10.3125 17.6562 10.5938 17.8438L10.7812 17.5156C10.3125 17.2344 9.32812 17.2344 9.32812 17.8906C9.32812 18.5938 10.4062 18.3125 10.4062 18.5938C10.4062 18.9219 9.79688 18.875 9.46875 18.6406L9.28125 18.9688C9.79688 19.2969 10.8281 19.25 10.8281 18.5938ZM12.4688 19.0156L12.375 18.7344C12.1875 18.8281 11.8125 18.9219 11.8125 18.5V17.75H12.4219V17.375H11.8125V16.8594H11.3906V17.375H11.0625V17.75H11.3906V18.5C11.3906 19.3438 12.2344 19.2031 12.4688 19.0156ZM13.0781 18.4062H14.3906C14.3906 17.6562 14.0156 17.3281 13.5469 17.3281C13.0781 17.3281 12.7031 17.7031 12.7031 18.2656C12.7031 19.2031 13.7812 19.3906 14.2969 18.9219L14.1094 18.6406C13.7344 18.9219 13.2188 18.9219 13.0781 18.4062ZM15.8438 17.375C15.6562 17.2812 15.3281 17.3281 15.1406 17.6094V17.375H14.7656V19.1094H15.1406V18.125C15.1406 17.6094 15.6094 17.6562 15.75 17.75L15.8438 17.375ZM16.3594 18.2656C16.3594 17.7031 16.9219 17.5625 17.3438 17.8438L17.5312 17.5625C16.9688 17.1406 15.9844 17.375 15.9844 18.2656C15.9844 19.2031 17.0156 19.3906 17.5312 18.9688L17.3438 18.6406C16.9219 18.9688 16.3594 18.7812 16.3594 18.2656ZM19.5 17.375H19.125V17.6094C18.7031 17.0938 17.7188 17.375 17.7188 18.2656C17.7188 19.1562 18.75 19.3906 19.125 18.9219V19.1094H19.5V17.375ZM21.0469 17.375C20.9531 17.3281 20.5312 17.2812 20.3438 17.6094V17.375H19.9688V19.1094H20.3438V18.125C20.3438 17.6094 20.7656 17.6562 20.9531 17.75L21.0469 17.375ZM22.9688 16.7188H22.5938V17.6094C22.2188 17.0938 21.1875 17.375 21.1875 18.2656C21.1875 19.1562 22.2188 19.3906 22.5938 18.9219V19.1094H22.9688V16.7188ZM23.2969 13.1562V13.3906H23.3438V13.1562H23.4375H23.2031H23.2969ZM23.625 18.9688V18.9219C23.5781 18.875 23.5781 18.875 23.5781 18.875C23.5781 18.8281 23.5312 18.8281 23.5312 18.8281C23.4844 18.8281 23.4844 18.7812 23.4375 18.7812L23.3906 18.8281C23.3438 18.8281 23.3438 18.8281 23.3438 18.875C23.2969 18.875 23.2969 18.875 23.2969 18.9219V18.9688C23.2969 19.0156 23.2969 19.0156 23.2969 19.0625C23.2969 19.0625 23.2969 19.0625 23.3438 19.1094C23.3438 19.1094 23.3438 19.1094 23.3906 19.1562H23.4375C23.4844 19.1562 23.4844 19.1562 23.5312 19.1562C23.5312 19.1094 23.5781 19.1094 23.5781 19.1094C23.5781 19.0625 23.5781 19.0625 23.625 19.0625C23.625 19.0156 23.625 19.0156 23.625 18.9688ZM23.7656 13.1562H23.7188L23.625 13.2969L23.5781 13.1562H23.4844V13.3906H23.5312V13.2031L23.625 13.3438H23.6719L23.7188 13.2031V13.3906H23.7656V13.1562ZM24 9.35938C24 5.79688 21.0469 2.89062 17.4844 2.89062C16.2188 2.89062 14.9531 3.26562 13.9219 3.96875C17.2969 6.73438 17.3438 11.9844 13.9219 14.75C14.9531 15.4531 16.2188 15.8281 17.4844 15.8281C21.0469 15.875 24 12.9688 24 9.35938Z" fill="white"/>
</svg>
