<svg width="24" height="25" viewBox="0 0 24 25" fill="none" xmlns="http://www.w3.org/2000/svg">
<rect y="0.478516" width="24" height="24" rx="5" fill="white"/>
<path d="M15.9648 10.6973C15.9648 10.7949 15.9648 10.873 15.9648 10.9707C15.9648 13.6855 13.9141 16.791 10.1445 16.791C8.97266 16.791 7.89844 16.459 7 15.873C7.15625 15.8926 7.3125 15.9121 7.48828 15.9121C8.44531 15.9121 9.32422 15.5801 10.0273 15.0332C9.12891 15.0137 8.36719 14.4277 8.11328 13.6074C8.25 13.627 8.36719 13.6465 8.50391 13.6465C8.67969 13.6465 8.875 13.6074 9.03125 13.5684C8.09375 13.373 7.39062 12.5527 7.39062 11.5566V11.5371C7.66406 11.6934 7.99609 11.7715 8.32812 11.791C7.76172 11.4199 7.41016 10.7949 7.41016 10.0918C7.41016 9.70117 7.50781 9.34961 7.68359 9.05664C8.69922 10.2871 10.2227 11.1074 11.9219 11.2051C11.8828 11.0488 11.8633 10.8926 11.8633 10.7363C11.8633 9.60352 12.7812 8.68555 13.9141 8.68555C14.5 8.68555 15.0273 8.91992 15.418 9.33008C15.8672 9.23242 16.3164 9.05664 16.707 8.82227C16.5508 9.31055 16.2383 9.70117 15.8086 9.95508C16.2188 9.91602 16.6289 9.79883 16.9805 9.64258C16.707 10.0527 16.3555 10.4043 15.9648 10.6973Z" fill="#212020"/>
</svg>
