<svg width="24" height="25" viewBox="0 0 24 25" fill="none" xmlns="http://www.w3.org/2000/svg">
<rect y="0.478516" width="24" height="24" rx="5" fill="white"/>
<path d="M16.7227 10.1699C16.957 10.9902 16.957 12.748 16.957 12.748C16.957 12.748 16.957 14.4863 16.7227 15.3262C16.6055 15.7949 16.2344 16.1465 15.7852 16.2637C14.9453 16.4785 11.625 16.4785 11.625 16.4785C11.625 16.4785 8.28516 16.4785 7.44531 16.2637C6.99609 16.1465 6.625 15.7949 6.50781 15.3262C6.27344 14.4863 6.27344 12.748 6.27344 12.748C6.27344 12.748 6.27344 10.9902 6.50781 10.1699C6.625 9.70117 6.99609 9.33008 7.44531 9.21289C8.28516 8.97852 11.625 8.97852 11.625 8.97852C11.625 8.97852 14.9453 8.97852 15.7852 9.21289C16.2344 9.33008 16.6055 9.70117 16.7227 10.1699ZM10.5312 14.3301L13.3047 12.748L10.5312 11.166V14.3301Z" fill="#212020"/>
</svg>
